<svg id="Capa_1" enable-background="new 0 0 512 512" height="512" viewBox="0 0 512 512" width="512" xmlns="http://www.w3.org/2000/svg" xmlns:xlink="http://www.w3.org/1999/xlink"><linearGradient id="lg1"><stop offset="0" stop-color="#594a8e"/><stop offset="1" stop-color="#a996eb"/></linearGradient><linearGradient id="SVGID_1_" gradientUnits="userSpaceOnUse" x1="202.982" x2="223.683" xlink:href="#lg1" y1="141.82" y2="105.965"/><linearGradient id="SVGID_2_" gradientUnits="userSpaceOnUse" x1="364.686" x2="403.39" xlink:href="#lg1" y1="259.786" y2="192.749"/><linearGradient id="lg2"><stop offset="0" stop-color="#d7d1eb"/><stop offset="1" stop-color="#e9e5f6"/></linearGradient><linearGradient id="SVGID_3_" gradientUnits="userSpaceOnUse" x1="408.976" x2="448.705" xlink:href="#lg2" y1="286.464" y2="217.652"/><linearGradient id="lg3"><stop offset="0" stop-color="#7662bd"/><stop offset="1" stop-color="#c5baeb"/></linearGradient><linearGradient id="SVGID_4_" gradientUnits="userSpaceOnUse" x1="424.287" x2="454.445" xlink:href="#lg3" y1="223.795" y2="306.732"/><linearGradient id="SVGID_5_" gradientUnits="userSpaceOnUse" x1="219.285" x2="324.525" xlink:href="#lg1" y1="257.523" y2="196.762"/><linearGradient id="SVGID_6_" gradientUnits="userSpaceOnUse" x1="271.856" x2="374.172" y1="309.936" y2="309.936"><stop offset="0" stop-color="#594a8e"/><stop offset="1" stop-color="#7662bd"/></linearGradient><linearGradient id="SVGID_7_" gradientUnits="userSpaceOnUse" x1="72.867" x2="93.568" xlink:href="#lg1" y1="216.95" y2="181.096"/><linearGradient id="SVGID_8_" gradientUnits="userSpaceOnUse" x1="280.018" x2="302.168" xlink:href="#lg2" y1="227.525" y2="189.159"/><linearGradient id="SVGID_9_" gradientUnits="userSpaceOnUse" x1="213.857" x2="252.562" xlink:href="#lg1" y1="345.907" y2="278.869"/><linearGradient id="SVGID_10_" gradientUnits="userSpaceOnUse" x1="273.458" x2="303.616" xlink:href="#lg3" y1="309.916" y2="392.853"/><linearGradient id="SVGID_11_" gradientUnits="userSpaceOnUse" x1="258.076" x2="297.805" xlink:href="#lg2" y1="372.455" y2="303.643"/><g><g><path d="m268.846 101.357.003-.006-73.445-43.164-.005.011c-6.917-3.906-15.896-3.505-25.718 2.166-21.852 12.616-39.566 46.463-39.566 75.599 0 15.916 5.294 27.118 13.653 31.964l-.005.01 74.615 43.776.004-.007c6.928 3.958 15.941 3.577 25.803-2.117 21.852-12.616 39.566-46.463 39.566-75.599-.001-16.696-5.825-28.208-14.905-32.633z" fill="url(#SVGID_1_)"/><ellipse cx="244.184" cy="156.834" fill="#7662bd" rx="60.741" ry="34.364" transform="matrix(.392 -.92 .92 .392 4.262 320.114)"/></g><g><path d="m351.655 170.837.002-.004-85.433-49.916-.004.008c-4.771-2.694-10.965-2.417-17.74 1.494-15.073 8.702-27.291 32.049-27.291 52.145 0 10.978 3.651 18.705 9.417 22.048l-.003.007 86.24 50.338.002-.005c4.779 2.73 10.996 2.467 17.798-1.46 15.073-8.702 27.292-32.049 27.292-52.146.001-11.516-4.017-19.457-10.28-22.509z" fill="#594a8e"/></g><g><path d="m489.966 203.228.004-.009-153.629-88.98-.007.016c-10.227-5.775-23.501-5.181-38.021 3.202-32.305 18.651-58.494 68.689-58.494 111.763 0 23.529 7.826 40.09 20.184 47.255l-.007.015 155.359 89.885.005-.011c10.243 5.851 23.566 5.288 38.146-3.13 32.305-18.651 58.494-68.689 58.494-111.762 0-24.684-8.61-41.703-22.034-48.244z" fill="url(#SVGID_2_)"/><path d="m395.085 319.144c0-43.073 26.188-93.111 58.493-111.763 14.592-8.425 27.925-8.982 38.171-3.115l.011-.022-26.772-15.406-.002.005c-10.278-6.021-23.715-5.51-38.426 2.983-32.305 18.651-58.493 68.689-58.493 111.763 0 23.658 7.908 40.279 20.384 47.378l-.004.009 26.181 15.067.005-.01c-11.993-7.36-19.548-23.763-19.548-46.889z" fill="url(#SVGID_3_)"/><ellipse cx="453.506" cy="285.243" fill="#7662bd" rx="89.798" ry="50.802" transform="matrix(.392 -.92 .92 .392 13.467 590.853)"/><path d="m495.523 260.985c0 30.94-18.812 66.883-42.017 80.28s-42.016-.824-42.016-31.764 18.811-66.883 42.016-80.28 42.017.824 42.017 31.764z" fill="#594a8e"/><path d="m478.125 250.955c0-11.343-2.536-20.427-6.883-26.739-5.39-.24-11.397 1.345-17.736 5.005-23.205 13.397-42.016 49.34-42.016 80.28 0 11.343 2.536 20.427 6.883 26.739 5.39.24 11.396-1.345 17.736-5.005 23.205-13.397 42.016-49.34 42.016-80.28z" fill="url(#SVGID_4_)"/></g><path d="m152.673 227.171 102.316-59.072 119.183 68.81-102.316 59.072z" fill="url(#SVGID_5_)"/><path d="m358.788 298.641c0-20.321 5.833-42.19 15.383-61.584v-.148l-102.316 59.072v86.983l92.823-53.592c-3.769-8.134-5.89-18.489-5.89-30.731z" fill="url(#SVGID_6_)"/><g><path d="m138.732 176.488.003-.006-73.445-43.164-.005.011c-6.918-3.906-15.896-3.505-25.718 2.166-21.852 12.617-39.567 46.463-39.567 75.599 0 15.916 5.294 27.118 13.653 31.965l-.004.01 74.615 43.776.004-.008c6.929 3.958 15.941 3.577 25.803-2.117 21.852-12.616 39.566-46.463 39.566-75.599-.001-16.697-5.826-28.209-14.905-32.633z" fill="url(#SVGID_7_)"/><path d="m153.636 209.121c0 29.136-17.714 62.982-39.566 75.599-21.852 12.616-39.566-.776-39.566-29.911 0-29.136 17.714-62.983 39.566-75.599 21.851-12.616 39.566.775 39.566 29.911z" fill="#7662bd"/></g><g><path d="m221.541 245.968.002-.004-85.433-49.916-.003.008c-4.771-2.694-10.965-2.417-17.74 1.494-15.073 8.702-27.292 32.049-27.292 52.146 0 10.978 3.651 18.705 9.417 22.048l-.003.007 86.24 50.338.003-.005c4.779 2.73 10.995 2.467 17.798-1.46 15.073-8.702 27.292-32.049 27.292-52.146-.001-11.518-4.018-19.458-10.281-22.51z" fill="#594a8e"/></g><g><path d="m271.755 244.268 50.375-29.084c-.93-8.232-4.368-13.939-9.323-16.353l.002-.004-21.78-12.772-.003.007c-4.449-2.512-10.223-2.254-16.54 1.393-12.872 7.432-23.505 26.317-25.203 43.839z" fill="url(#SVGID_8_)"/><path d="m322.136 215.181c-1.745-15.463-12.355-22.01-25.189-14.599-12.835 7.41-23.444 26.207-25.189 43.685z" fill="#c5baeb"/></g><g><path d="m339.138 289.349.004-.009-153.629-88.98-.007.016c-10.227-5.775-23.5-5.181-38.021 3.202-32.305 18.652-58.494 68.689-58.494 111.763 0 23.53 7.826 40.09 20.183 47.255l-.007.015 155.358 89.885.006-.011c10.243 5.851 23.566 5.288 38.146-3.13 32.305-18.651 58.494-68.689 58.494-111.763 0-24.684-8.61-41.703-22.033-48.243z" fill="url(#SVGID_9_)"/><ellipse cx="302.678" cy="371.364" fill="#7662bd" rx="89.798" ry="50.802" transform="matrix(.392 -.92 .92 .392 -157.549 504.466)"/><ellipse cx="302.678" cy="371.364" fill="#594a8e" rx="64.503" ry="36.492" transform="matrix(.392 -.92 .92 .392 -157.549 504.466)"/><path d="m327.296 337.076c0-11.343-2.536-20.428-6.883-26.739-5.39-.24-11.397 1.345-17.736 5.005-23.205 13.397-42.016 49.34-42.016 80.28 0 11.343 2.536 20.427 6.883 26.739 5.39.24 11.397-1.345 17.736-5.005 23.205-13.397 42.016-49.34 42.016-80.28z" fill="url(#SVGID_10_)"/><path d="m244.184 405.135c0-43.074 26.188-93.111 58.493-111.763 14.592-8.425 27.925-8.982 38.171-3.115l.011-.022-26.772-15.406-.002.005c-10.278-6.021-23.715-5.51-38.426 2.983-32.305 18.651-58.493 68.689-58.493 111.763 0 23.658 7.908 40.279 20.383 47.378l-.004.009 26.181 15.068.005-.01c-11.991-7.361-19.547-23.764-19.547-46.89z" fill="url(#SVGID_11_)"/></g><g fill="#fff"><g opacity=".5"><path d="m320.414 310.337c-5.39-.24-11.397 1.345-17.736 5.005-23.205 13.397-42.016 49.34-42.016 80.28 0 8.867 1.567 16.33 4.32 22.191l55.875-106.76c-.152-.233-.288-.49-.443-.716z" opacity=".5"/><path d="m327.296 337.076c0-1.929-.099-3.768-.242-5.564l-46.068 88.02c1.412-.623 2.843-1.339 4.293-2.176 23.206-13.397 42.017-49.34 42.017-80.28z" opacity=".5"/></g><g opacity=".5"><path d="m471.242 224.216c-5.39-.24-11.397 1.345-17.736 5.005-23.205 13.397-42.016 49.34-42.016 80.28 0 9.407 1.765 17.232 4.84 23.239l55.934-106.872c-.334-.56-.662-1.13-1.022-1.652z" opacity=".5"/><path d="m478.125 250.955c0-1.293-.042-2.548-.107-3.782l-44.79 85.58c.953-.464 1.911-.958 2.881-1.518 23.205-13.397 42.016-49.34 42.016-80.28z" opacity=".5"/></g></g></g></svg>