<svg id="Capa_1" enable-background="new 0 0 512 512" height="512" viewBox="0 0 512 512" width="512" xmlns="http://www.w3.org/2000/svg"><g><g><path d="m503.883 501.358c0 5.872-4.759 10.642-10.642 10.642h-252.58v-137.076h-85.649v137.076h-49.14c-5.872 0-10.631-4.759-10.631-10.642v-316.307c0-2.936 1.205-5.738 3.338-7.747l20.459-19.285h360.944l20.429 19.295c2.133 2.009 3.338 4.801 3.338 7.726z" fill="#fcc16d"/><path d="m503.172 181.714h-407.354c.536-1.659 1.463-3.183 2.761-4.399l60.266-56.794c1.968-1.865 4.584-2.905 7.294-2.905h266.848c2.709 0 5.326 1.04 7.294 2.905l60.142 56.794c.474.453.907.958 1.298 1.483.627.896 1.111 1.885 1.451 2.916z" fill="#fddaa9"/><path d="m236.953 131.575c1.185 8.345.144 16.957-3.121 24.848-3.276 7.901-8.633 14.711-15.37 19.779-2.091 8.159-6.346 15.71-12.383 21.757-6.119 6.119-13.619 10.353-21.799 12.434-5.058 6.717-11.857 12.053-19.738 15.319-5.79 2.4-11.899 3.616-18.131 3.616-2.246 0-4.502-.165-6.727-.484-7.253 4.275-15.597 6.614-24.137 6.614-7.077 0-14.01-1.607-20.305-4.584v-45.822c0-2.936 1.205-5.738 3.338-7.747l60.255-56.794c1.978-1.854 4.584-2.895 7.304-2.895h76.316c-1.083 4.914-2.947 9.632-5.502 13.959z" fill="#fcb44d"/><path d="m134.409 369.835h126.857v142.165h-126.857z" fill="#f3f0f3"/><path d="m261.268 390.44v-29.6c0-5.875-4.763-10.637-10.637-10.637h-105.587c-5.875 0-10.637 4.763-10.637 10.637v29.6z" fill="#64b9fc"/><path d="m503.883 501.358c0 5.882-4.759 10.642-10.631 10.642h-39.013c5.872 0 10.642-4.759 10.642-10.642l-.134-316.327c0-2.926-1.205-5.707-3.338-7.716l-20.428-19.295h39.013l20.429 19.295c2.122 2.009 3.327 4.79 3.327 7.716z" fill="#fcb44d"/><path d="m353.817 181.724v84.382c0 5.882-4.77 10.642-10.642 10.642h-87.225c-5.872 0-10.642-4.759-10.642-10.642v-84.382l7.809-23.704h92.891z" fill="#7a6e79"/><path d="m236.953 131.575c1.185 8.345.144 16.957-3.121 24.848-3.276 7.901-8.633 14.711-15.37 19.779-.484 1.875-1.082 3.709-1.782 5.512h-120.862c.536-1.659 1.463-3.183 2.761-4.399l60.266-56.794c1.968-1.865 4.584-2.905 7.294-2.905h76.316c-1.083 4.914-2.947 9.632-5.502 13.959z" fill="#fccb90"/><path d="m503.172 181.716h-38.965c-.543-1.659-1.5-3.181-2.798-4.404l-60.122-56.793c-1.979-1.862-4.595-2.904-7.308-2.904h39.007c2.713 0 5.329 1.042 7.297 2.904l60.133 56.793c.479.457.915.957 1.298 1.489.639.893 1.118 1.883 1.458 2.915z" fill="#fccb90"/><path d="m353.813 181.719h-108.501l21.126-64.1h66.249z" fill="#a69ca7"/></g><g><g><g><path d="m222.971 107.427c0-7.769-3.306-14.762-8.583-19.661 3-6.546 3.378-14.272.405-21.449s-8.703-12.373-15.453-14.88c.267-7.196-2.341-14.478-7.834-19.971s-12.776-8.101-19.971-7.834c-2.507-6.75-7.703-12.48-14.88-15.453s-14.903-2.595-21.449.405c-4.9-5.278-11.894-8.584-19.662-8.584s-14.762 3.306-19.661 8.583c-6.546-3-14.272-3.378-21.449-.405s-12.373 8.703-14.88 15.453c-7.196-.267-14.478 2.341-19.971 7.834s-8.101 12.776-7.834 19.971c-6.75 2.507-12.48 7.703-15.453 14.88s-2.595 14.903.405 21.449c-5.277 4.899-8.583 11.893-8.583 19.661s3.306 14.762 8.583 19.661c-3 6.546-3.378 14.272-.405 21.449s8.703 12.373 15.453 14.88c-.267 7.196 2.341 14.478 7.834 19.971s12.776 8.101 19.971 7.834c2.507 6.75 7.703 12.48 14.88 15.453s14.903 2.595 21.449-.405c4.899 5.277 11.893 8.583 19.661 8.583s14.762-3.306 19.661-8.583c6.546 3 14.272 3.378 21.449.405s12.373-8.703 14.88-15.453c7.196.267 14.478-2.341 19.971-7.834s8.101-12.776 7.834-19.971c6.75-2.507 12.48-7.703 15.453-14.88s2.595-14.903-.405-21.449c5.278-4.898 8.584-11.891 8.584-19.66z" fill="#fc5a95"/><path d="m214.392 127.089c3 6.541 3.37 14.272.4 21.453-2.97 7.171-8.701 12.371-15.452 14.872.27 7.201-2.34 14.482-7.831 19.972-5.501 5.501-12.781 8.101-19.972 7.841-2.51 6.751-7.701 12.481-14.882 15.452-7.181 2.97-14.902 2.59-21.452-.41-4.901 5.281-11.891 8.581-19.662 8.581-5.021 0-9.721-1.38-13.742-3.79 2.19-1.31 4.171-2.93 5.901-4.79 6.551 3 14.272 3.38 21.452.41 7.181-2.97 12.371-8.701 14.882-15.452 7.191.26 14.472-2.34 19.972-7.841 5.491-5.491 8.101-12.771 7.831-19.972 6.751-2.5 12.481-7.701 15.452-14.872 2.97-7.181 2.6-14.912-.4-21.453 5.271-4.9 8.581-11.891 8.581-19.662s-3.31-14.762-8.581-19.662c3-6.541 3.37-14.272.4-21.453-2.97-7.171-8.701-12.371-15.452-14.872.27-7.201-2.34-14.482-7.831-19.972-5.501-5.501-12.781-8.101-19.972-7.841-2.51-6.751-7.701-12.481-14.882-15.452-7.181-2.97-14.902-2.59-21.452.41-1.73-1.86-3.71-3.48-5.901-4.79 4.02-2.41 8.721-3.79 13.742-3.79 7.771 0 14.762 3.3 19.662 8.581 6.551-3 14.272-3.38 21.452-.41s12.371 8.701 14.882 15.452c7.191-.26 14.472 2.34 19.972 7.841 5.491 5.491 8.101 12.771 7.831 19.972 6.751 2.5 12.481 7.701 15.452 14.872 2.97 7.181 2.6 14.912-.4 21.453 5.271 4.9 8.581 11.891 8.581 19.662s-3.31 14.76-8.581 19.66z" fill="#fb3a82"/><circle cx="115.544" cy="107.427" fill="#ffc9dd" r="69.008"/></g><g><g><g id="XMLID_321_"><path d="m97.407 96.964c-.013 0-.026 0-.039 0l-.104-.001c-4.267-.021-7.709-3.497-7.689-7.764.021-4.267 3.531-7.686 7.764-7.689l.104.001c4.267.021 7.709 3.497 7.689 7.764-.02 4.255-3.476 7.689-7.725 7.689z" fill="#fc5a95"/></g><g id="XMLID_319_"><path d="m133.785 133.343h-.104c-4.267 0-7.726-3.459-7.726-7.726s3.459-7.726 7.726-7.726h.104c4.267 0 7.726 3.459 7.726 7.726 0 4.266-3.459 7.726-7.726 7.726z" fill="#fc5a95"/></g></g><g><path d="m101.236 131.801c-1.783 0-3.573-.613-5.032-1.866-3.236-2.781-3.606-7.659-.825-10.895l28.608-33.296c2.78-3.238 7.658-3.607 10.895-.825 3.236 2.781 3.606 7.659.825 10.895l-28.607 33.296c-1.528 1.779-3.69 2.691-5.864 2.691z" fill="#fc5a95"/></g></g></g></g><g><path d="m168.014 489.648c-4.267 0-7.726-3.459-7.726-7.726v-64.533c0-4.267 3.459-7.726 7.726-7.726s7.726 3.459 7.726 7.726v64.533c0 4.267-3.459 7.726-7.726 7.726z" fill="#64b9fc"/></g><g><path d="m226.165 432.443h-28.327c-4.267 0-7.726-3.459-7.726-7.726s3.459-7.726 7.726-7.726h28.327c4.267 0 7.726 3.459 7.726 7.726 0 4.266-3.459 7.726-7.726 7.726z" fill="#64b9fc"/></g><g><path d="m226.165 460.218h-28.327c-4.267 0-7.726-3.459-7.726-7.726s3.459-7.726 7.726-7.726h28.327c4.267 0 7.726 3.459 7.726 7.726s-3.459 7.726-7.726 7.726z" fill="#64b9fc"/></g><g><path d="m226.165 487.993h-28.327c-4.267 0-7.726-3.459-7.726-7.726s3.459-7.726 7.726-7.726h28.327c4.267 0 7.726 3.459 7.726 7.726s-3.459 7.726-7.726 7.726z" fill="#64b9fc"/></g><g><path d="m447.502 327.96h-22.578c-4.268 0-7.726-3.459-7.726-7.726s3.459-7.726 7.726-7.726h22.578c4.268 0 7.726 3.459 7.726 7.726s-3.458 7.726-7.726 7.726z" fill="#fddaa9"/></g><g><path d="m447.502 357.929h-22.578c-4.268 0-7.726-3.459-7.726-7.726s3.459-7.726 7.726-7.726h22.578c4.268 0 7.726 3.459 7.726 7.726s-3.458 7.726-7.726 7.726z" fill="#fddaa9"/></g><g><path d="m447.502 387.898h-22.578c-4.268 0-7.726-3.459-7.726-7.726s3.459-7.726 7.726-7.726h22.578c4.268 0 7.726 3.459 7.726 7.726s-3.458 7.726-7.726 7.726z" fill="#fddaa9"/></g><g><path d="m447.502 417.868h-22.578c-4.268 0-7.726-3.459-7.726-7.726s3.459-7.726 7.726-7.726h22.578c4.268 0 7.726 3.459 7.726 7.726 0 4.266-3.458 7.726-7.726 7.726z" fill="#fddaa9"/></g><g><path d="m447.502 447.837h-22.578c-4.268 0-7.726-3.459-7.726-7.726s3.459-7.726 7.726-7.726h22.578c4.268 0 7.726 3.459 7.726 7.726 0 4.266-3.458 7.726-7.726 7.726z" fill="#fddaa9"/></g><g><path d="m447.502 477.806h-22.578c-4.268 0-7.726-3.459-7.726-7.726s3.459-7.726 7.726-7.726h22.578c4.268 0 7.726 3.459 7.726 7.726s-3.458 7.726-7.726 7.726z" fill="#fddaa9"/></g></g></svg>