<svg id="Capa_1" enable-background="new 0 0 512 512" height="512" viewBox="0 0 512 512" width="512" xmlns="http://www.w3.org/2000/svg" xmlns:xlink="http://www.w3.org/1999/xlink"><linearGradient id="lg1"><stop offset="0" stop-color="#43386b"/><stop offset="1" stop-color="#7662bd"/></linearGradient><linearGradient id="SVGID_1_" gradientUnits="userSpaceOnUse" x1="215.738" x2="262.983" xlink:href="#lg1" y1="434.109" y2="434.109"/><linearGradient id="lg2"><stop offset="0" stop-color="#cc8241"/><stop offset="1" stop-color="#dea861"/></linearGradient><linearGradient id="SVGID_2_" gradientUnits="userSpaceOnUse" x1="250.172" x2="269.058" xlink:href="#lg2" y1="299.091" y2="299.091"/><linearGradient id="lg3"><stop offset="0" stop-color="#dea861"/><stop offset="1" stop-color="#ebcba0"/></linearGradient><linearGradient id="SVGID_3_" gradientUnits="userSpaceOnUse" x1="227.991" x2="298.719" xlink:href="#lg3" y1="215.078" y2="255.913"/><linearGradient id="SVGID_4_" gradientUnits="userSpaceOnUse" x1="170.908" x2="189.794" xlink:href="#lg2" y1="344.869" y2="344.869"/><linearGradient id="SVGID_5_" gradientUnits="userSpaceOnUse" x1="148.727" x2="219.455" xlink:href="#lg3" y1="260.856" y2="301.691"/><linearGradient id="SVGID_6_" gradientUnits="userSpaceOnUse" x1="318.915" x2="337.801" xlink:href="#lg2" y1="339.428" y2="339.428"/><linearGradient id="SVGID_7_" gradientUnits="userSpaceOnUse" x1="296.734" x2="367.462" xlink:href="#lg3" y1="255.415" y2="296.249"/><linearGradient id="SVGID_8_" gradientUnits="userSpaceOnUse" x1="239.651" x2="258.537" xlink:href="#lg2" y1="385.567" y2="385.567"/><linearGradient id="SVGID_9_" gradientUnits="userSpaceOnUse" x1="217.47" x2="288.197" xlink:href="#lg3" y1="301.554" y2="342.389"/><linearGradient id="SVGID_10_" gradientUnits="userSpaceOnUse" x1="239.846" x2="258.802" xlink:href="#lg1" y1="150.424" y2="150.424"/><g><g><path d="m266.265 274.162c-1.902 0-3.471-1.516-3.523-3.431l-4.978-183.362c-.053-1.947 1.483-3.568 3.428-3.62 1.922-.093 3.568 1.482 3.621 3.429l4.978 183.362c.053 1.947-1.482 3.568-3.428 3.62-.032.002-.065.002-.098.002z" fill="#7662bd"/></g><g><g><g><path d="m427.967 401.768v-45.55l-343.934 14.748v45.55c-.001 4.91 2.429 9.82 7.289 12.626l136.246 78.662c9.69 5.595 21.628 5.595 31.318 0l161.791-93.41c4.861-2.806 7.29-7.716 7.29-12.626z" fill="url(#SVGID_1_)"/><path d="m91.322 358.342 161.792-93.41c9.69-5.595 21.628-5.595 31.318 0l136.246 78.662c9.719 5.611 9.719 19.638 0 25.249l-161.791 93.41c-9.69 5.594-21.628 5.594-31.318 0l-136.247-78.662c-9.718-5.611-9.718-19.638 0-25.249z" fill="#a996eb"/></g></g></g><g><path d="m96.438 367.119c-.472 0-.951-.096-1.412-.296-1.784-.781-2.598-2.859-1.817-4.644l96.676-221.074c.78-1.785 2.855-2.596 4.644-1.818 1.784.781 2.598 2.859 1.816 4.644l-96.675 221.074c-.579 1.324-1.874 2.114-3.232 2.114z" fill="#7662bd"/></g><g><g><path d="m335.01 319.889v-85.659l-137.486 5.896v85.659c0 1.963.971 3.926 2.914 5.047l54.464 31.445c3.874 2.236 8.646 2.236 12.519 0l64.675-37.34c1.943-1.123 2.914-3.086 2.914-5.048z" fill="url(#SVGID_2_)"/><path d="m200.438 235.078 64.675-37.34c3.873-2.236 8.646-2.236 12.519 0l54.464 31.445c3.885 2.243 3.885 7.85 0 10.093l-64.675 37.34c-3.874 2.236-8.646 2.236-12.519 0l-54.464-31.445c-3.885-2.242-3.885-7.85 0-10.093z" fill="url(#SVGID_3_)"/><path d="m314.859 219.275-79.734 46.042-18.426-10.639 79.734-46.041z" fill="#dea861"/><path d="m303.927 212.964-79.815 45.989 3.609 2.083 79.815-45.989z" fill="#cc8241"/><path d="m235.125 265.317v15.217l-18.426-10.638v-15.218z" fill="#dea861"/></g></g><g><g><path d="m255.746 365.666v-85.659l-137.486 5.896v85.659c0 1.963.971 3.926 2.914 5.047l54.464 31.445c3.874 2.236 8.646 2.236 12.519 0l64.675-37.34c1.943-1.122 2.914-3.085 2.914-5.048z" fill="url(#SVGID_4_)"/><path d="m121.174 280.856 64.675-37.34c3.873-2.236 8.646-2.236 12.519 0l54.464 31.445c3.885 2.243 3.885 7.85 0 10.093l-64.675 37.34c-3.874 2.236-8.646 2.236-12.519 0l-54.464-31.445c-3.885-2.243-3.885-7.85 0-10.093z" fill="url(#SVGID_5_)"/><path d="m142.144 268.749 69.465 40.105 18.426-10.638-69.464-40.106z" fill="#dea861"/><g fill="#cc8241"><path d="m153.157 262.385 69.465 40.105-3.61 2.084-69.464-40.105z"/><path d="m211.609 308.854v15.217l18.426-10.638v-15.217z"/></g></g></g><g><g><path d="m403.753 360.225v-85.659l-137.486 5.896v85.659c0 1.963.971 3.926 2.914 5.047l54.464 31.445c3.874 2.236 8.646 2.236 12.519 0l64.675-37.34c1.942-1.122 2.914-3.085 2.914-5.048z" fill="url(#SVGID_6_)"/><path d="m269.18 275.415 64.675-37.34c3.873-2.236 8.646-2.236 12.519 0l54.464 31.445c3.885 2.243 3.885 7.85 0 10.093l-64.675 37.34c-3.874 2.236-8.646 2.236-12.519 0l-54.464-31.445c-3.884-2.243-3.884-7.85 0-10.093z" fill="url(#SVGID_7_)"/><path d="m290.151 263.307 69.464 40.105 18.427-10.638-69.465-40.105z" fill="#dea861"/><g fill="#cc8241"><path d="m301.164 256.943 69.465 40.105-3.61 2.084-69.464-40.105z"/><path d="m359.615 303.412v15.218l18.427-10.639v-15.217z"/></g></g></g><g><g><path d="m324.488 406.364v-85.66l-137.486 5.896v85.66c0 1.963.971 3.926 2.914 5.047l54.464 31.445c3.874 2.236 8.646 2.236 12.519 0l64.675-37.34c1.943-1.122 2.915-3.085 2.914-5.048z" fill="url(#SVGID_8_)"/><path d="m189.916 321.554 64.675-37.34c3.873-2.236 8.646-2.236 12.519 0l54.464 31.445c3.885 2.243 3.885 7.85 0 10.093l-64.675 37.34c-3.874 2.236-8.646 2.236-12.519 0l-54.464-31.445c-3.884-2.243-3.884-7.85 0-10.093z" fill="url(#SVGID_9_)"/><path d="m304.338 305.751-79.734 46.042-18.426-10.639 79.734-46.042z" fill="#dea861"/><path d="m293.406 299.439-79.815 45.99 3.609 2.083 79.815-45.989z" fill="#cc8241"/><path d="m224.604 351.793v15.217l-18.426-10.639v-15.217z" fill="#dea861"/></g></g><g><path d="m244.247 456.349c-.041 0-.083-.001-.124-.002-1.946-.067-3.469-1.699-3.402-3.646l11.755-340.769c.067-1.947 1.696-3.444 3.647-3.403 1.946.067 3.469 1.699 3.402 3.646l-11.755 340.769c-.066 1.905-1.631 3.405-3.523 3.405z" fill="#7662bd"/></g><g><path d="m410.257 360.504c-1.374 0-2.679-.807-3.249-2.151l-94.155-222.1c-.759-1.793.077-3.863 1.872-4.623 1.792-.762 3.864.078 4.623 1.87l94.155 222.1c.759 1.793-.077 3.863-1.872 4.623-.447.191-.916.281-1.374.281z" fill="#7662bd"/></g><g><g><g><path d="m324.997 137.447v-18.276l-137.994 5.918v18.276c0 1.97.975 3.94 2.924 5.066l54.665 31.561c3.888 2.245 8.678 2.245 12.566 0l64.915-37.479c1.95-1.126 2.924-3.096 2.924-5.066z" fill="url(#SVGID_10_)"/><path d="m189.927 120.024 64.915-37.479c3.888-2.245 8.678-2.245 12.566 0l54.665 31.561c3.899 2.251 3.899 7.879 0 10.131l-64.915 37.478c-3.888 2.245-8.678 2.245-12.566 0l-54.665-31.561c-3.899-2.251-3.899-7.879 0-10.13z" fill="#a996eb"/></g></g></g><g><path d="m256 125.656c-1.947 0-3.526-1.579-3.526-3.526v-118.604c0-1.947 1.579-3.526 3.526-3.526s3.526 1.579 3.526 3.526v118.604c0 1.947-1.579 3.526-3.526 3.526z" fill="#7662bd"/></g></g></svg>