<svg id="Capa_1" enable-background="new 0 0 512 512" height="512" viewBox="0 0 512 512" width="512" xmlns="http://www.w3.org/2000/svg" xmlns:xlink="http://www.w3.org/1999/xlink"><linearGradient id="lg1"><stop offset="0" stop-color="#43386b"/><stop offset="1" stop-color="#7662bd"/></linearGradient><linearGradient id="SVGID_1_" gradientTransform="matrix(-1 0 0 1 377.017 0)" gradientUnits="userSpaceOnUse" x1="193.582" x2="209.29" xlink:href="#lg1" y1="351.395" y2="324.187"/><linearGradient id="SVGID_2_" gradientTransform="matrix(-1 0 0 1 377.017 0)" gradientUnits="userSpaceOnUse" x1="49.981" x2="65.689" xlink:href="#lg1" y1="434.567" y2="407.36"/><linearGradient id="SVGID_3_" gradientTransform="matrix(-1 0 0 1 528 0)" gradientUnits="userSpaceOnUse" x1="256.682" x2="295.066" y1="209.401" y2="209.401"><stop offset="0" stop-color="#dea861"/><stop offset="1" stop-color="#cc8241"/></linearGradient><linearGradient id="SVGID_4_" gradientTransform="matrix(-1 0 0 1 528 0)" gradientUnits="userSpaceOnUse" x1="211.6" x2="355.348" y1="38.652" y2="121.645"><stop offset="0" stop-color="#dea861"/><stop offset="1" stop-color="#ebcba0"/></linearGradient><linearGradient id="SVGID_5_" gradientUnits="userSpaceOnUse" x1="404.438" x2="353.314" y1="334.958" y2="246.408"><stop offset="0" stop-color="#236568"/><stop offset=".1516" stop-color="#276a6c"/><stop offset=".3251" stop-color="#337878"/><stop offset=".5094" stop-color="#478e8c"/><stop offset=".7011" stop-color="#62afa7"/><stop offset=".8968" stop-color="#86d7ca"/><stop offset="1" stop-color="#9bf0df"/></linearGradient><linearGradient id="SVGID_6_" gradientUnits="userSpaceOnUse" x1="298.899" x2="298.899" xlink:href="#lg1" y1="379.268" y2="263.339"/><linearGradient id="SVGID_7_" gradientUnits="userSpaceOnUse" x1="417.618" x2="417.618" xlink:href="#lg1" y1="378.706" y2="248.88"/><linearGradient id="SVGID_8_" gradientUnits="userSpaceOnUse" x1="299.387" x2="299.387" xlink:href="#lg1" y1="527.675" y2="389.827"/><linearGradient id="SVGID_9_" gradientUnits="userSpaceOnUse" x1="155.786" x2="155.786" xlink:href="#lg1" y1="444.502" y2="306.655"/><linearGradient id="SVGID_10_" gradientUnits="userSpaceOnUse" x1="365.516" x2="383.964" xlink:href="#lg1" y1="448.285" y2="448.285"/><linearGradient id="SVGID_11_" gradientUnits="userSpaceOnUse" x1="435.501" x2="435.501" y1="434.371" y2="397.309"><stop offset="0" stop-color="#43386b"/><stop offset="1" stop-color="#594a8e"/></linearGradient><linearGradient id="SVGID_12_" gradientUnits="userSpaceOnUse" x1="126.874" x2="22.383" xlink:href="#lg1" y1="211.947" y2="147.644"/><linearGradient id="SVGID_13_" gradientUnits="userSpaceOnUse" x1="159.026" x2="54.534" xlink:href="#lg1" y1="267.945" y2="203.643"/><g><g><path d="m130.335 320.625 36.295-20.869.001.003c6.617-3.506 15.117-3.007 24.391 2.347 21.1 12.182 38.204 44.863 38.204 72.996 0 15.467-5.177 26.324-13.339 30.954l.006.013-34.848 20.061z" fill="url(#SVGID_1_)"/><path d="m273.936 403.798 36.295-20.869.001.003c6.617-3.506 15.117-3.007 24.391 2.347 21.099 12.182 38.204 44.863 38.204 72.996 0 15.467-5.177 26.324-13.339 30.954l.006.012-34.848 20.061z" fill="url(#SVGID_2_)"/><g><path d="m98.893 251.669v-174.095l279.427 11.982v174.095c.001 3.989-1.973 7.978-5.922 10.258l-110.693 63.908c-7.872 4.545-17.572 4.545-25.444 0l-131.447-75.891c-3.947-2.278-5.921-6.268-5.921-10.257z" fill="url(#SVGID_3_)"/><path d="m372.399 79.3-131.447-75.891c-7.872-4.545-17.572-4.545-25.444 0l-110.693 63.908c-7.896 4.559-7.896 15.955 0 20.514l131.447 75.891c7.872 4.545 17.572 4.545 25.444 0l110.693-63.908c7.896-4.559 7.896-15.956 0-20.514z" fill="url(#SVGID_4_)"/><path d="m329.778 54.693-141.18 81.51-37.45-21.622 141.18-81.51z" fill="#dea861"/><path d="m307.395 41.758-141.18 81.511 7.335 4.235 141.181-81.51z" fill="#cc8241"/></g><path d="m489.04 336.086-26.765-112.211c-3.207-13.444-11.805-24.977-23.775-31.887l-57.527-33.255c-3.447-1.99-7.381-1.409-10.119.749l-100.56 58.058-20.164 11.642 116.705 256.091 118.362-68.336c.827-.339 1.605-.788 2.312-1.335 2.244-1.736 3.762-4.445 3.762-7.684v-52.861c0-6.389-.749-12.756-2.231-18.971z" fill="url(#SVGID_5_)"/><path d="m384.465 408.667 16.859-9.733c1.005-.58 2.26.145 2.26 1.305v14.799c0 2.006-1.07 3.86-2.808 4.863l-16.859 9.733c-1.005.58-2.26-.145-2.26-1.305v-14.799c.001-2.006 1.071-3.859 2.808-4.863z" fill="#e9e5f6"/><path d="m467.427 360.722 16.859-9.733c1.005-.58 2.26.145 2.26 1.305v14.799c0 2.006-1.07 3.86-2.808 4.863l-16.859 9.733c-1.005.58-2.26-.145-2.26-1.305v-14.799c0-2.006 1.07-3.86 2.808-4.863z" fill="#e9e5f6"/><path d="m246.562 325.875v-89.501c0-6.952 7.526-11.298 13.547-7.821l57.527 33.254c11.97 6.911 20.568 18.443 23.775 31.887l26.765 112.211c1.482 6.215 2.231 12.582 2.231 18.971v52.861c0 7.497-8.116 12.183-14.609 8.435l-245.545-142.205c-7.142-4.123-11.541-11.743-11.541-19.99v-55.868c0-4.512 4.885-7.332 8.792-5.076l123.626 71.73c6.85 3.975 15.432-.968 15.432-8.888z" fill="#06daae"/><path d="m261.423 340.643v-91.727l46.427 26.846c4.591 2.651 7.828 7.141 8.892 12.335l19.632 95.861z" fill="url(#SVGID_6_)"/><path d="m458.574 232.727-103.104 59.527 21.191 91.703 103.104-59.527z" fill="url(#SVGID_7_)"/><path d="m261.183 434.419c0-28.133 17.105-41.064 38.204-28.882 21.1 12.182 38.204 44.863 38.204 72.996s-17.105 41.064-38.204 28.882c-21.1-12.182-38.204-44.863-38.204-72.996z" fill="url(#SVGID_8_)"/><ellipse cx="299.387" cy="456.476" fill="#e9e5f6" rx="20.659" ry="36.517" transform="matrix(.92 -.392 .392 .92 -154.829 153.672)"/><ellipse cx="299.387" cy="456.476" fill="#7662bd" rx="10.525" ry="18.604" transform="matrix(.92 -.392 .392 .92 -154.829 153.67)"/><path d="m117.582 351.246c0-28.133 17.105-41.064 38.204-28.882 21.1 12.182 38.204 44.864 38.204 72.996 0 28.133-17.105 41.064-38.204 28.882-21.1-12.181-38.204-44.863-38.204-72.996z" fill="url(#SVGID_9_)"/><ellipse cx="155.786" cy="373.304" fill="#e9e5f6" rx="20.659" ry="36.517" transform="matrix(.92 -.392 .392 .92 -133.73 90.805)"/><path d="m143.668 366.307c0-8.924 5.425-13.025 12.118-9.161s12.118 14.23 12.118 23.154-5.426 13.025-12.118 9.161c-6.693-3.864-12.118-14.23-12.118-23.154z" fill="#7662bd"/><path d="m490.935 402.624-124.01 67.898-22.855-10.984v26.584l19.607 11.32c3.461 1.998 7.726 1.998 11.187 0l119.82-69.178c1.56-.9 2.339-2.476 2.339-4.052v-26.584z" fill="url(#SVGID_10_)"/><path d="m349.374 456.476 21.033 12.143 120.864-69.781v-7.232l3.413 1.97c3.119 1.801 3.119 6.303 0 8.103l-119.82 69.178c-3.461 1.998-7.726 1.998-11.187 0l-19.607-11.32z" fill="#a996eb"/><path d="m410.159 421.961 50.684-29.263v8.692c0 5.523-2.946 10.627-7.73 13.388l-35.341 20.404c-3.384 1.954-7.614-.488-7.614-4.396v-8.825z" fill="url(#SVGID_11_)"/></g><g fill="#5d3645"><path d="m133.275 127.007-.052 9.987-17.496-10.101v10.702l16.159 9.329v10.017l-16.159-9.329v17.358l-9.416-5.437v-48.093z"/><path d="m159.206 190.072-5.248-16.34-.206-.119-6.792-3.922v13.31l-9.417-5.437v-48.094l16.209 9.358c9.571 5.526 15.026 14.849 15.026 25.552 0 7.273-2.264 11.316-6.432 11.792l7.511 20.048zm-12.246-30.398 6.844 3.951c3.808 2.198 6.021.869 6.021-4.002 0-4.734-2.214-8.55-6.021-10.748l-6.844-3.951z"/><path d="m203.25 167.407v10.016l-19.039-10.992v8.988l17.188 9.923v9.948l-17.188-9.854v9.056l19.554 11.289v10.017l-28.969-16.726v-48.094z"/><path d="m237.979 187.458v10.016l-19.039-10.992v8.988l17.188 9.923v9.948l-17.188-9.854v9.056l19.554 11.289v10.017l-28.969-16.726v-48.094z"/></g><path d="m23.783 140.872 87.951 50.779c4.494 2.595 7.262 7.39 7.262 12.579 0 4.519-4.892 7.344-8.806 5.084l-87.951-50.779c-4.494-2.595-7.262-7.39-7.262-12.579 0-4.519 4.892-7.344 8.806-5.084z" fill="url(#SVGID_12_)"/><path d="m55.934 196.871 87.951 50.779c4.494 2.595 7.262 7.39 7.262 12.579 0 4.519-4.892 7.344-8.806 5.084l-87.951-50.78c-4.494-2.595-7.262-7.39-7.262-12.579 0-4.518 4.892-7.343 8.806-5.083z" fill="url(#SVGID_13_)"/></g></svg>