<svg id="Capa_1" enable-background="new 0 0 512 512" height="512" viewBox="0 0 512 512" width="512" xmlns="http://www.w3.org/2000/svg" xmlns:xlink="http://www.w3.org/1999/xlink"><linearGradient id="lg1"><stop offset="0" stop-color="#cc8241"/><stop offset="1" stop-color="#dea861"/></linearGradient><linearGradient id="SVGID_1_" gradientUnits="userSpaceOnUse" x1="236.255" x2="281.816" xlink:href="#lg1" y1="361.158" y2="361.158"/><linearGradient id="SVGID_2_" gradientUnits="userSpaceOnUse" x1="334.799" x2="230.419" xlink:href="#lg1" y1="217.427" y2="217.427"/><linearGradient id="SVGID_3_" gradientUnits="userSpaceOnUse" x1="334.799" x2="230.419" xlink:href="#lg1" y1="315.118" y2="315.118"/><linearGradient id="SVGID_4_" gradientUnits="userSpaceOnUse" x1="225.902" x2="324.259" y1="96.412" y2="96.412"><stop offset="0" stop-color="#c9edff"/><stop offset=".4614" stop-color="#d3f1ff"/><stop offset="1" stop-color="#e5f7ff"/></linearGradient><linearGradient id="lg2"><stop offset="0" stop-color="#d5c9f1"/><stop offset="1" stop-color="#e7e3f3"/></linearGradient><linearGradient id="SVGID_5_" gradientUnits="userSpaceOnUse" x1="192.677" x2="267.48" xlink:href="#lg2" y1="61.484" y2="61.484"/><linearGradient id="SVGID_6_" gradientUnits="userSpaceOnUse" x1="223.47" x2="354.052" xlink:href="#lg2" y1="9.615" y2="85.007"/><linearGradient id="SVGID_7_" gradientUnits="userSpaceOnUse" x1="280.42" x2="382.301" xlink:href="#lg1" y1="151.369" y2="219.846"/><linearGradient id="SVGID_8_" gradientUnits="userSpaceOnUse" x1="258.792" x2="403.439" y1="276.947" y2="276.947"><stop offset="0" stop-color="#ab2c37"/><stop offset="1" stop-color="#ff4757"/></linearGradient><linearGradient id="SVGID_9_" gradientUnits="userSpaceOnUse" x1="236.255" x2="281.816" y1="361.158" y2="361.158"><stop offset="0" stop-color="#dea861"/><stop offset=".328" stop-color="#e3b67b"/><stop offset=".7518" stop-color="#e9c596"/><stop offset="1" stop-color="#ebcba0"/></linearGradient><linearGradient id="SVGID_10_" gradientUnits="userSpaceOnUse" x1="62.124" x2="273.294" y1="73.732" y2="284.902"><stop offset="0" stop-color="#236568"/><stop offset="1" stop-color="#2f878a"/></linearGradient><linearGradient id="lg3"><stop offset="0" stop-color="#06daae"/><stop offset=".2214" stop-color="#0ccda8"/><stop offset=".6285" stop-color="#1dab9a"/><stop offset="1" stop-color="#2f878a"/></linearGradient><radialGradient id="SVGID_11_" cx="175.5" cy="232.129" gradientUnits="userSpaceOnUse" r="51.862" xlink:href="#lg3"/><radialGradient id="SVGID_12_" cx="204.7" cy="228.031" gradientUnits="userSpaceOnUse" r="70.512" xlink:href="#lg3"/><radialGradient id="SVGID_13_" cx="190.265" cy="195.2" gradientUnits="userSpaceOnUse" r="40.668" xlink:href="#lg3"/><radialGradient id="SVGID_14_" cx="314.908" cy="246.852" gradientUnits="userSpaceOnUse" r="80.956" xlink:href="#lg3"/><radialGradient id="SVGID_15_" cx="237.33575" cy="306.84325" gradientUnits="userSpaceOnUse" r="112.88185" xlink:href="#lg3"/><radialGradient id="SVGID_16_" cx="244.265" cy="227.2" gradientUnits="userSpaceOnUse" r="40.668" xlink:href="#lg3"/><radialGradient id="SVGID_17_" cx="291.952" cy="250.026" gradientUnits="userSpaceOnUse" r="61.96" xlink:href="#lg3"/><radialGradient id="SVGID_18_" cx="289.206" cy="332.165" gradientUnits="userSpaceOnUse" r="123.826" xlink:href="#lg3"/><radialGradient id="SVGID_19_" cx="213.413" cy="151.126" gradientUnits="userSpaceOnUse" r="35.183" xlink:href="#lg3"/><radialGradient id="SVGID_20_" cx="233.155" cy="150.712" gradientUnits="userSpaceOnUse" r="20.292" xlink:href="#lg3"/><radialGradient id="SVGID_21_" cx="256.949" cy="162.101" gradientUnits="userSpaceOnUse" r="30.916" xlink:href="#lg3"/><radialGradient id="SVGID_22_" cx="255.579" cy="203.086" gradientTransform="matrix(1 0 0 1.023 0 -3.685)" gradientUnits="userSpaceOnUse" r="61.785" xlink:href="#lg3"/><g><path d="m440.919 405.697v-195.381l-331.674 14.223v195.381c-.001 4.735 2.342 9.47 7.029 12.176l131.39 75.858c9.344 5.395 20.857 5.395 30.202 0l156.025-90.081c4.686-2.706 7.028-7.441 7.028-12.176z" fill="url(#SVGID_1_)"/><path d="m116.274 212.364 156.025-90.081c9.344-5.395 20.857-5.395 30.202 0l131.39 75.858c9.372 5.411 9.372 18.938 0 24.349l-156.025 90.081c-9.344 5.395-20.857 5.395-30.202 0l-131.39-75.858c-9.372-5.411-9.372-18.938 0-24.349z" fill="url(#SVGID_2_)"/><path d="m433.89 198.141-131.39-75.858c-9.344-5.395-20.857-5.395-30.202 0l-156.025 90.081c-4.687 2.706-7.03 7.442-7.029 12.177v195.379c-.001 4.735 2.342 9.47 7.029 12.176l131.39 75.858c9.344 5.395 20.857 5.395 30.202 0l156.025-90.081c4.687-2.706 7.03-7.441 7.029-12.176v-195.381c0-4.735-2.343-9.469-7.029-12.175z" fill="url(#SVGID_3_)"/><g><path d="m357.901 115.66-165.629 13.841v187.037c-.003.247-.003.493 0 .74v.56l.012-.001c.364 10.641 7.012 20.756 20.195 28.367 29.943 17.288 82.245 15.12 116.821-4.842 19.574-11.301 29.266-25.883 28.562-39.545l.04-.004v-186.153z" fill="#c9edff"/><ellipse cx="275.082" cy="123.021" fill="#c9edff" rx="83.232" ry="47.088" transform="matrix(.993 -.121 .121 .993 -12.863 34.184)"/><path d="m344.621 141.383-139.071 11.622v157.046c-.003.207-.003.414 0 .621v.47l.01-.001c.306 8.935 5.887 17.428 16.957 23.819 25.142 14.516 69.057 12.695 98.089-4.066 16.436-9.489 24.573-21.732 23.982-33.204l.034-.003v-156.304z" fill="#fff"/><ellipse cx="275.082" cy="147.564" fill="#dff4ff" rx="69.886" ry="39.538" transform="matrix(.993 -.121 .121 .993 -15.832 34.364)"/><path d="m324.256 97.317c.003-.185.003-.37 0-.554v-20.596l-4.276.365c-1.92-2.291-4.489-4.413-7.723-6.28-17.781-10.266-48.84-8.978-69.372 2.876-5.752 3.321-10.067 7.119-12.908 11.092l-4.076.348v20.596.018.001c.003 6.517 3.951 12.739 12.004 17.389 17.781 10.266 48.84 8.978 69.372-2.876 11.098-6.408 16.845-14.59 16.979-22.379z" fill="url(#SVGID_4_)"/><path d="m343.34 62.74c.004-.257.004-.513 0-.769v-28.589l-5.935.507c-2.665-3.181-6.231-6.126-10.72-8.717-24.682-14.25-67.794-12.463-96.294 3.991-7.984 4.61-13.973 9.882-17.918 15.396l-5.658.483v28.589.025.001c.004 9.047 5.484 17.683 16.662 24.137 24.682 14.25 67.794 12.463 96.294-3.992 15.404-8.894 23.382-20.252 23.568-31.062z" fill="url(#SVGID_5_)"/><path d="m319.772 65.216c28.5-16.455 31.595-41.345 6.914-55.595-24.682-14.25-67.794-12.463-96.294 3.992s-31.595 41.345-6.914 55.595c24.682 14.249 67.794 12.462 96.294-3.992z" fill="url(#SVGID_6_)"/></g><g><path d="m313.947 394.185c-41.075 9.092-48.69-64.899-17.009-165.264s90.661-189.097 131.736-198.189 48.69 64.899 17.009 165.264-90.662 189.097-131.736 198.189z" fill="url(#SVGID_7_)"/><g fill="#ebcba0"><path d="m347.196 114.947c.002-.001.003-.002.005-.003 15.559.758 28.543 4.609 38.392 8.839 3.757 1.614 1.964 7.251-2.052 6.481-17.939-3.438-32.697-3.412-43.778-2.231 2.449-4.472 4.929-8.834 7.433-13.086z"/><path d="m297.107 228.385c.719-.526 1.394-1.019 2.113-1.545 1.097.011 2.232.042 3.426.102 15.448.778 28.349 4.602 38.152 8.806 3.789 1.625 2.063 7.283-1.986 6.507-18.771-3.599-34.057-3.404-45.294-2.062 1.136-3.894 2.328-7.827 3.589-11.808z"/><path d="m322.614 162.278c26.864 2.367 48.004 10.901 61.925 18.386 3.538 1.902 1.455 7.273-2.449 6.325-26.964-6.546-49.624-7.774-67.306-6.81 2.532-6.067 5.146-12.04 7.83-17.901z"/></g></g><path d="m390.481 267.106c0-48.996-39.719-69.033-88.715-69.033s-88.715 20.037-88.715 69.033 39.719 88.715 88.715 88.715 88.715-39.719 88.715-88.715z" fill="url(#SVGID_8_)"/><path d="m433.89 222.49-156.025 90.081c-9.344 5.395-20.857 5.395-30.202 0l-131.39-75.858c-4.685-2.705-7.028-7.438-7.029-12.172v195.379c-.001 4.735 2.342 9.47 7.029 12.176l131.39 75.858c9.344 5.395 20.857 5.395 30.202 0l156.025-90.081c4.687-2.706 7.03-7.441 7.029-12.176v-195.381c0 4.734-2.343 9.469-7.029 12.174z" fill="url(#SVGID_9_)"/><g><path d="m278.656 161.217c4.964-6.004 7.957-13.695 7.957-22.094 0-19.18-15.548-34.729-34.729-34.729-6.443 0-12.472 1.761-17.644 4.818-5.49-13.453-18.695-22.937-34.121-22.937-7.075 0-13.681 1.998-19.293 5.454-9.879-13.218-25.651-21.774-43.422-21.774-29.921 0-54.176 24.255-54.176 54.176 0 2.534.193 5.021.53 7.462-12.17 9.426-20.012 24.171-20.012 40.755 0 3.078.271 6.093.789 9.022-10.729 7.331-17.774 19.656-17.774 33.63 0 20.652 15.384 37.7 35.315 40.337 5.921 20.958 25.172 36.322 48.026 36.322 11.257 0 21.642-3.73 29.992-10.016 8.223 18.868 27.022 32.063 48.919 32.063 29.472 0 53.364-23.892 53.364-53.364 0-3.487-.354-6.889-.996-10.188 1.443.138 2.904.214 4.384.214 25.133 0 45.508-20.375 45.508-45.508 0-20.652-13.764-38.082-32.617-43.643z" fill="url(#SVGID_10_)"/><circle cx="122.422" cy="220.94" fill="url(#SVGID_11_)" r="24.195"/><circle cx="173.613" cy="177.749" fill="url(#SVGID_12_)" r="17.387"/><circle cx="154.823" cy="188.038" fill="url(#SVGID_13_)" r="11.346"/><circle cx="266.084" cy="202.848" fill="url(#SVGID_14_)" r="14.916"/><circle cx="166.477" cy="241.645" fill="url(#SVGID_15_)" r="18.5"/><circle cx="208.823" cy="220.038" fill="url(#SVGID_16_)" r="11.346"/><circle cx="254.584" cy="216.348" fill="url(#SVGID_17_)" r="11.416"/><circle cx="211.477" cy="260.645" fill="url(#SVGID_18_)" r="20.294"/><circle cx="197.902" cy="126.037" fill="url(#SVGID_19_)" r="8.675"/><circle cx="215.47" cy="147.138" fill="url(#SVGID_20_)" r="5.661"/><circle cx="238.304" cy="145.297" fill="url(#SVGID_21_)" r="5.696"/><ellipse cx="216.795" cy="167.637" fill="url(#SVGID_22_)" rx="10.126" ry="10.363"/></g><path d="m329.719 360.924 67.98-39.248v-48.26l-67.98 39.248z" fill="#dea861"/></g></svg>