<svg id="Capa_1" enable-background="new 0 0 512 512" height="512" viewBox="0 0 512 512" width="512" xmlns="http://www.w3.org/2000/svg"><g><path d="m256 66.79c-85.091 0-154.318 69.227-154.318 154.317s69.226 154.317 154.318 154.317 154.318-69.226 154.318-154.316-69.226-154.318-154.318-154.318zm0 288.634c-74.064 0-134.318-60.254-134.318-134.316s60.254-134.318 134.318-134.318 134.318 60.255 134.318 134.317-60.255 134.317-134.318 134.317z"/><path d="m412.348 64.761c-41.762-41.762-97.288-64.761-156.348-64.761s-114.587 22.999-156.348 64.761c-41.763 41.761-64.762 97.287-64.762 156.346 0 50.12 17.235 99.213 48.53 138.234 29.964 37.36 71.662 64.245 117.771 76.023l46.401 72.049c1.841 2.859 5.008 4.587 8.408 4.587 3.399 0 6.566-1.728 8.407-4.586l46.4-72.049c46.11-11.778 87.809-38.663 117.772-76.023 31.295-39.021 48.53-88.114 48.53-138.234.001-59.06-22.999-114.586-64.761-156.347zm-110.083 352.107c-2.521.594-4.714 2.143-6.116 4.32l-40.149 62.343-40.149-62.343c-1.402-2.178-3.595-3.727-6.116-4.32-91.171-21.459-154.845-101.959-154.845-195.761 0-110.89 90.217-201.107 201.11-201.107s201.11 90.217 201.11 201.107c0 93.802-63.675 174.302-154.845 195.761z"/><path d="m285.263 154.93c-5.094-2.136-10.954.259-13.091 5.351l-49.197 117.225c-2.137 5.093.258 10.954 5.351 13.091 1.264.53 2.575.782 3.865.782 3.907 0 7.619-2.305 9.225-6.133l49.197-117.225c2.139-5.093-.258-10.955-5.35-13.091z"/><path d="m249.89 183.947c0-19.442-14.237-35.261-31.738-35.261-17.5 0-31.738 15.818-31.738 35.261 0 19.442 14.237 35.26 31.738 35.26s31.738-15.817 31.738-35.26zm-31.738 15.26c-6.362 0-11.738-6.988-11.738-15.26s5.375-15.261 11.738-15.261c6.362 0 11.738 6.988 11.738 15.261 0 8.272-5.376 15.26-11.738 15.26z"/><path d="m293.847 228.835c-17.5 0-31.737 15.818-31.737 35.261s14.237 35.261 31.737 35.261c17.501 0 31.738-15.818 31.738-35.261s-14.237-35.261-31.738-35.261zm0 50.521c-6.362 0-11.737-6.988-11.737-15.261s5.375-15.261 11.737-15.261c6.363 0 11.738 6.988 11.738 15.261.001 8.273-5.374 15.261-11.738 15.261z"/></g></svg>