<svg id="Capa_1" enable-background="new 0 0 512 512" height="512" viewBox="0 0 512 512" width="512" xmlns="http://www.w3.org/2000/svg" xmlns:xlink="http://www.w3.org/1999/xlink"><linearGradient id="SVGID_1_" gradientUnits="userSpaceOnUse" x1="167.511" x2="225.106" y1="314.199" y2="314.199"><stop offset="0" stop-color="#cc8241"/><stop offset="1" stop-color="#dea861"/></linearGradient><linearGradient id="SVGID_2_" gradientUnits="userSpaceOnUse" x1="99.868" x2="315.557" y1="57.996" y2="182.524"><stop offset="0" stop-color="#dea861"/><stop offset="1" stop-color="#ebcba0"/></linearGradient><linearGradient id="SVGID_3_" gradientUnits="userSpaceOnUse" x1="389.26" x2="444.903" y1="313.081" y2="216.703"><stop offset="0" stop-color="#ab2c37"/><stop offset="1" stop-color="#ff7a85"/></linearGradient><linearGradient id="SVGID_4_" gradientTransform="matrix(.866 -.5 0 1.155 295.454 1378.237)" gradientUnits="userSpaceOnUse" x1="57.542" x2="283.558" y1="-857.855" y2="-857.855"><stop offset="0" stop-color="#ff4757"/><stop offset="1" stop-color="#ff7a85"/></linearGradient><linearGradient id="SVGID_5_" gradientUnits="userSpaceOnUse" x1="422.734" x2="444.745" y1="273.48" y2="235.355"><stop offset="0" stop-color="#c5baeb"/><stop offset="1" stop-color="#d7d1eb"/></linearGradient><g><g><g><path d="m426.229 377.621v-261.224l-419.272 17.98v261.224c-.001 5.986 2.961 11.971 8.885 15.392l166.091 95.893c11.813 6.82 26.366 6.82 38.178 0l197.232-113.872c5.925-3.421 8.886-9.407 8.886-15.393z" fill="url(#SVGID_1_)"/><path d="m15.843 118.987 197.231-113.872c11.812-6.82 26.366-6.82 38.178 0l166.091 95.893c11.847 6.84 11.847 23.94 0 30.78l-197.231 113.871c-11.813 6.82-26.366 6.82-38.178 0l-166.091-95.892c-11.848-6.84-11.848-23.94 0-30.78z" fill="url(#SVGID_2_)"/><path d="m79.794 82.064 211.836 122.304 56.193-32.443-211.837-122.303z" fill="#dea861"/><g fill="#cc8241"><path d="m113.379 62.657 211.836 122.304-11.007 6.355-211.836-122.304z"/><path d="m291.63 204.368v46.406l56.193-32.443v-46.406z"/></g></g></g><g><path d="m480.592 174.602-31.479-18.175c-15.156-10.503-35.977-9.881-58.79 4.664-41.385 26.385-74.803 90.873-76.135 146.849-.579 24.35 4.826 43.514 14.351 56.173l-.014.021 50.949 65.147c.918 1.173 1.963 2.05 3.1 2.66l31.579 18.232z" fill="url(#SVGID_3_)"/><path d="m505.043 237.174c0-60.458-37.781-87.337-83.581-58.138-41.385 26.384-74.803 90.873-76.135 146.849-.579 24.35 4.826 43.514 14.351 56.173l-.014.021 50.949 65.146c7.148 9.14 21.951.593 29.099-16.8l50.95-123.978-.014-.005c9.063-22.504 14.395-46.589 14.395-69.268z" fill="url(#SVGID_4_)"/><path d="m483.484 222.479-23.499-13.528-.001.004c-9.276-4.916-21.192-4.215-34.192 3.29-29.578 17.077-53.556 62.892-53.556 102.33 0 21.682 7.257 36.903 18.699 43.393l-.008.018 21.471 12.396z" fill="url(#SVGID_5_)"/><ellipse cx="447.806" cy="296.327" fill="#f2effa" rx="82.219" ry="46.515" transform="matrix(.392 -.92 .92 .392 -.2 592.351)"/></g></g></svg>