<svg id="Capa_1" enable-background="new 0 0 512 512" height="512" viewBox="0 0 512 512" width="512" xmlns="http://www.w3.org/2000/svg" xmlns:xlink="http://www.w3.org/1999/xlink"><linearGradient id="lg1"><stop offset="0" stop-color="#cc8241"/><stop offset="1" stop-color="#dea861"/></linearGradient><linearGradient id="SVGID_1_" gradientUnits="userSpaceOnUse" x1="262.504" x2="286.068" xlink:href="#lg1" y1="401.09" y2="401.09"/><linearGradient id="lg2"><stop offset="0" stop-color="#dea861"/><stop offset="1" stop-color="#ebcba0"/></linearGradient><linearGradient id="SVGID_2_" gradientTransform="matrix(-1 0 0 1 512 0)" gradientUnits="userSpaceOnUse" x1="192.67" x2="256.186" xlink:href="#lg2" y1="349.066" y2="385.737"/><linearGradient id="SVGID_3_" gradientUnits="userSpaceOnUse" x1="142.203" x2="165.766" xlink:href="#lg1" y1="331.574" y2="331.574"/><linearGradient id="SVGID_4_" gradientTransform="matrix(-1 0 0 1 512 0)" gradientUnits="userSpaceOnUse" x1="312.971" x2="376.488" xlink:href="#lg2" y1="279.55" y2="316.221"/><linearGradient id="SVGID_5_" gradientUnits="userSpaceOnUse" x1="34.333" x2="57.896" xlink:href="#lg1" y1="269.201" y2="269.201"/><linearGradient id="SVGID_6_" gradientTransform="matrix(-1 0 0 1 512 0)" gradientUnits="userSpaceOnUse" x1="420.841" x2="484.358" xlink:href="#lg2" y1="217.177" y2="253.848"/><linearGradient id="SVGID_7_" gradientUnits="userSpaceOnUse" x1="432.727" x2="456.29" xlink:href="#lg1" y1="303.246" y2="303.246"/><linearGradient id="SVGID_8_" gradientTransform="matrix(-1 0 0 1 512 0)" gradientUnits="userSpaceOnUse" x1="22.447" x2="85.964" xlink:href="#lg2" y1="251.222" y2="287.893"/><linearGradient id="SVGID_9_" gradientTransform="matrix(-1 0 0 1 512 0)" gradientUnits="userSpaceOnUse" x1="234.424" x2="254.416" xlink:href="#lg1" y1="315.418" y2="315.418"/><linearGradient id="SVGID_10_" gradientTransform="matrix(-1 0 0 1 512 0)" gradientUnits="userSpaceOnUse" x1="263.921" x2="406.589" xlink:href="#lg2" y1="242.929" y2="325.298"/><linearGradient id="SVGID_11_" gradientTransform="matrix(-1 0 0 1 512 0)" gradientUnits="userSpaceOnUse" x1="64.201" x2="84.193" xlink:href="#lg1" y1="216.905" y2="216.905"/><linearGradient id="SVGID_12_" gradientTransform="matrix(-1 0 0 1 512 0)" gradientUnits="userSpaceOnUse" x1="93.698" x2="236.366" xlink:href="#lg2" y1="144.415" y2="226.784"/><linearGradient id="SVGID_13_" gradientUnits="userSpaceOnUse" x1="57.048" x2="74.822" xlink:href="#lg1" y1="190.144" y2="190.144"/><linearGradient id="SVGID_14_" gradientUnits="userSpaceOnUse" x1="81.861" x2="211.312" xlink:href="#lg2" y1="121.784" y2="196.523"/><linearGradient id="SVGID_15_" gradientUnits="userSpaceOnUse" x1="161.132" x2="178.906" xlink:href="#lg1" y1="250.514" y2="250.514"/><linearGradient id="SVGID_16_" gradientUnits="userSpaceOnUse" x1="185.945" x2="315.395" xlink:href="#lg2" y1="182.155" y2="256.893"/><linearGradient id="SVGID_17_" gradientUnits="userSpaceOnUse" x1="265.216" x2="282.99" xlink:href="#lg1" y1="310.885" y2="310.885"/><linearGradient id="SVGID_18_" gradientUnits="userSpaceOnUse" x1="290.029" x2="419.479" xlink:href="#lg2" y1="242.525" y2="317.263"/><g><g><g><path d="m228.171 410.513v-35.908l113.571-11.387v35.908c0 2.048-1.013 4.097-3.041 5.268l-56.843 32.818c-4.043 2.334-9.023 2.334-13.066 0l-37.58-21.431c-2.027-1.171-3.041-3.219-3.041-5.268z" fill="url(#SVGID_1_)"/><path d="m338.701 357.951-37.58-21.431c-4.043-2.334-9.023-2.334-13.066 0l-56.843 32.818c-4.055 2.341-4.055 8.193 0 10.534l37.58 21.431c4.043 2.334 9.023 2.334 13.066 0l56.843-32.818c4.055-2.341 4.055-8.193 0-10.534z" fill="url(#SVGID_2_)"/></g></g><g><g><path d="m107.87 340.997v-35.908l113.571-11.387v35.908c0 2.048-1.013 4.097-3.041 5.268l-56.843 32.818c-4.043 2.334-9.024 2.334-13.066 0l-37.58-21.431c-2.028-1.17-3.042-3.219-3.041-5.268z" fill="url(#SVGID_3_)"/><path d="m218.4 288.435-37.58-21.431c-4.043-2.334-9.023-2.334-13.066 0l-56.843 32.818c-4.055 2.341-4.055 8.193 0 10.534l37.58 21.431c4.043 2.334 9.023 2.334 13.066 0l56.843-32.818c4.054-2.341 4.054-8.193 0-10.534z" fill="url(#SVGID_4_)"/></g></g><g><g><path d="m0 278.624v-35.908l113.571-11.387v35.908c0 2.049-1.013 4.097-3.041 5.268l-56.843 32.818c-4.043 2.334-9.024 2.334-13.066 0l-37.58-21.431c-2.028-1.171-3.041-3.22-3.041-5.268z" fill="url(#SVGID_5_)"/><path d="m110.53 226.061-37.58-21.431c-4.043-2.334-9.023-2.334-13.066 0l-56.843 32.819c-4.055 2.341-4.055 8.193 0 10.534l37.58 21.431c4.043 2.334 9.023 2.334 13.066 0l56.843-32.818c4.055-2.341 4.055-8.194 0-10.535z" fill="url(#SVGID_6_)"/></g></g><g><g><path d="m398.394 312.669v-35.909l113.571-11.387v35.908c0 2.048-1.013 4.097-3.041 5.268l-56.843 32.818c-4.043 2.334-9.023 2.334-13.066 0l-37.58-21.431c-2.028-1.17-3.041-3.219-3.041-5.267z" fill="url(#SVGID_7_)"/><path d="m508.924 260.106-37.58-21.431c-4.043-2.334-9.023-2.334-13.066 0l-56.843 32.818c-4.055 2.341-4.055 8.193 0 10.534l37.58 21.431c4.043 2.334 9.023 2.334 13.066 0l56.843-32.818c4.054-2.341 4.054-8.193 0-10.534z" fill="url(#SVGID_8_)"/></g></g><g><g><path d="m0 243.301v-15.99l341.742 120.389v15.99c0 2.048-1.013 4.097-3.041 5.268l-56.843 32.818c-4.043 2.334-9.023 2.334-13.066 0l-265.751-153.208c-2.028-1.17-3.041-3.219-3.041-5.267z" fill="url(#SVGID_9_)"/><path d="m338.701 342.432-265.751-153.207c-4.043-2.334-9.023-2.334-13.066 0l-56.843 32.818c-4.055 2.341-4.055 8.193 0 10.534l265.751 153.207c4.043 2.334 9.023 2.334 13.066 0l56.843-32.818c4.055-2.341 4.055-8.193 0-10.534z" fill="url(#SVGID_10_)"/></g></g><g><g><path d="m170.223 144.787v-15.99l341.742 120.389v15.99c0 2.048-1.013 4.097-3.041 5.268l-56.843 32.818c-4.043 2.334-9.023 2.334-13.066 0l-265.751-153.207c-2.028-1.171-3.042-3.22-3.041-5.268z" fill="url(#SVGID_11_)"/><path d="m508.924 243.919-265.751-153.207c-4.043-2.334-9.023-2.334-13.066 0l-56.843 32.818c-4.055 2.341-4.055 8.193 0 10.534l265.751 153.207c4.043 2.334 9.023 2.334 13.066 0l56.843-32.818c4.054-2.341 4.054-8.193 0-10.534z" fill="url(#SVGID_12_)"/></g></g><g><g><path d="m303.832 128.863v-15.99l-303.832 98.715v15.99c0 2.048 1.013 4.097 3.041 5.268l56.843 32.818c4.043 2.334 9.024 2.334 13.066 0l227.841-131.533c2.028-1.171 3.041-3.219 3.041-5.268z" fill="url(#SVGID_13_)"/><path d="m3.041 206.321 227.841-131.533c4.043-2.334 9.024-2.334 13.066 0l56.843 32.818c4.055 2.341 4.055 8.193 0 10.534l-227.841 131.533c-4.043 2.334-9.023 2.334-13.066 0l-56.843-32.818c-4.055-2.341-4.055-8.193 0-10.534z" fill="url(#SVGID_14_)"/></g></g><g><g><path d="m407.916 189.234v-15.99l-303.832 98.715v15.99c0 2.048 1.013 4.097 3.041 5.268l56.843 32.818c4.043 2.334 9.023 2.334 13.066 0l227.841-131.533c2.028-1.171 3.041-3.22 3.041-5.268z" fill="url(#SVGID_15_)"/><path d="m107.125 266.691 227.841-131.533c4.043-2.334 9.023-2.334 13.066 0l56.843 32.818c4.055 2.341 4.055 8.193 0 10.534l-227.841 131.533c-4.043 2.334-9.023 2.334-13.066 0l-56.843-32.818c-4.055-2.341-4.055-8.193 0-10.534z" fill="url(#SVGID_16_)"/></g></g><g><g><path d="m512 249.604v-15.99l-303.832 98.715v15.99c0 2.049 1.013 4.097 3.041 5.268l56.843 32.818c4.043 2.334 9.023 2.334 13.066 0l227.841-131.533c2.028-1.171 3.041-3.219 3.041-5.268z" fill="url(#SVGID_17_)"/><path d="m211.209 327.062 227.841-131.533c4.043-2.334 9.023-2.334 13.066 0l56.843 32.818c4.055 2.341 4.055 8.193 0 10.534l-227.841 131.533c-4.043 2.334-9.023 2.334-13.066 0l-56.843-32.818c-4.055-2.341-4.055-8.193 0-10.534z" fill="url(#SVGID_18_)"/></g></g></g></svg>