<svg id="Capa_1" enable-background="new 0 0 512 512" height="512" viewBox="0 0 512 512" width="512" xmlns="http://www.w3.org/2000/svg" xmlns:xlink="http://www.w3.org/1999/xlink"><linearGradient id="SVGID_1_" gradientUnits="userSpaceOnUse" x1="146.207" x2="198.655" y1="308.998" y2="308.998"><stop offset="0" stop-color="#cc8241"/><stop offset="1" stop-color="#dea861"/></linearGradient><linearGradient id="SVGID_2_" gradientUnits="userSpaceOnUse" x1="84.608" x2="281.024" y1="75.689" y2="189.09"><stop offset="0" stop-color="#dea861"/><stop offset="1" stop-color="#ebcba0"/></linearGradient><linearGradient id="SVGID_3_" gradientUnits="userSpaceOnUse" x1="403.017" x2="433.86" y1="221.221" y2="167.8"><stop offset="0" stop-color="#bf942a"/><stop offset="1" stop-color="#ffc538"/></linearGradient><linearGradient id="SVGID_4_" gradientUnits="userSpaceOnUse" x1="409.057" x2="409.057" y1="454.766" y2="181.769"><stop offset="0" stop-color="#ffc538"/><stop offset=".4185" stop-color="#fbd23c"/><stop offset="1" stop-color="#f7e041"/></linearGradient><linearGradient id="lg1"><stop offset="0" stop-color="#43386b"/><stop offset="1" stop-color="#594a8e"/></linearGradient><linearGradient id="SVGID_5_" gradientUnits="userSpaceOnUse" x1="421.379" x2="429.813" xlink:href="#lg1" y1="371.437" y2="356.829"/><linearGradient id="SVGID_6_" gradientUnits="userSpaceOnUse" x1="415.81" x2="429.728" xlink:href="#lg1" y1="279.108" y2="255.003"/><g><g><g><path d="m381.806 366.753v-237.881l-381.806 16.373v237.881c-.001 5.451 2.696 10.902 8.091 14.016l151.249 87.324c10.757 6.211 24.01 6.211 34.767 0l179.608-103.696c5.395-3.115 8.092-8.566 8.091-14.017z" fill="url(#SVGID_1_)"/><path d="m8.091 131.23 179.608-103.696c10.757-6.211 24.01-6.211 34.767 0l151.249 87.324c10.789 6.229 10.789 21.801 0 28.03l-179.608 103.695c-10.757 6.21-24.01 6.21-34.767 0l-151.249-87.323c-10.788-6.229-10.788-21.801 0-28.03z" fill="url(#SVGID_2_)"/><path d="m66.328 97.607 192.907 111.375 51.171-29.544-192.907-111.375z" fill="#dea861"/><g fill="#cc8241"><path d="m96.912 79.934 192.907 111.375-10.023 5.787-192.907-111.375z"/><path d="m259.235 208.982v42.259l51.171-29.544v-42.259z"/></g></g></g><g><path d="m425.027 175.597-22.208-12.843c-.021-.012-.043-.025-.064-.037l-.017-.01v.001c-11.767-6.535-30.828 7.526-39.248 31.831l-76.948 222.131c-7.318 21.126-2.566 38.364 8.349 41.55l-.006.017 20.788 12.002z" fill="url(#SVGID_3_)"/><path d="m309.63 429.964 76.948-222.13c9.991-28.84 34.967-43.26 44.957-25.956l76.948 133.278c9.991 17.304-2.498 53.354-22.479 64.89l-153.896 88.852c-19.98 11.536-32.468-10.094-22.478-38.934z" fill="url(#SVGID_4_)"/><path d="m419.467 187.597h.016c.115.117.333.375.624.878l76.948 133.278c2.229 3.861 2.772 12.684-1.041 23.691-3.574 10.316-10.092 19.412-16.608 23.173l-153.895 88.853c-1.78 1.028-3.111 1.394-3.762 1.394-.01 0-.02 0-.031 0-.073-.067-.203-.201-.377-.446-2.056-2.888-3.55-11.698.758-24.135l76.948-222.13c6.059-17.49 16.914-24.556 20.42-24.556m0-4.949c-6.225 0-18.506 8.862-25.095 27.885l-76.948 222.13c-4.633 13.375-3.395 24.014-.113 28.624 1.593 2.238 3.209 2.525 4.439 2.525 1.749 0 3.905-.711 6.236-2.057l153.896-88.852c7.601-4.388 14.808-14.289 18.809-25.839 3.861-11.146 4.11-21.792.651-27.785l-76.948-133.278c-1.707-2.954-3.448-3.353-4.927-3.353z" fill="#43386b"/><g><path d="m440.298 347.543.001-.002-12.258-7.065-.001.001c-3.554-1.884-8.12-1.615-13.101 1.261-11.333 6.543-20.521 24.098-20.521 39.209 0 8.308 2.781 14.14 7.165 16.627l-.003.007 11.481 6.631.009-.018c3.616 2.162 8.36 2.005 13.559-.996 11.333-6.543 20.521-24.098 20.521-39.209-.001-8.109-2.649-13.862-6.852-16.446z" fill="url(#SVGID_5_)"/><ellipse cx="426.628" cy="375.837" fill="#7662bd" rx="31.504" ry="17.823" transform="matrix(.392 -.92 .92 .392 -86.247 621.242)"/><path d="m444.238 233.526-11.047-6.134c-4.548-2.628-15.921-2.127-21.119.874-10.924 6.307-22.111 16.85-22.111 29.464l4.457 59.712c0 5.476 2.709 10.009 6.637 12.757l-.001.002.016.009c.906.632 1.873 1.174 2.891 1.606l10.611 5.968.696-2.979c1.955-.256 3.917-.893 5.794-1.977 10.924-6.307 17.653-17.963 17.653-30.577v-58.6c0-1.9-.327-3.686-.916-5.324z" fill="url(#SVGID_6_)"/><path d="m423.761 234.745c10.395-6.002 27.492-2.877 27.492 9.126l-4.104 62.977c0 12.614-6.729 24.27-17.653 30.576-10.395 6.001-23.389-1.5-23.389-13.503l-5.02-60.53c0-12.614 11.75-22.339 22.674-28.646z" fill="#7662bd"/></g></g></g></svg>