<svg id="Layer_1" enable-background="new 0 0 480.453 480.453" height="512" viewBox="0 0 480.453 480.453" width="512" xmlns="http://www.w3.org/2000/svg"><path d="m428 317.653c0 15.225-12.347 27.573-27.573 27.573h-299.854c-15.226 0-27.573-12.347-27.573-27.573v-269.854c0-15.225 12.347-27.573 27.573-27.573h299.854c15.225 0 27.573 12.348 27.573 27.573z" fill="#ffaa64"/><path d="m428 47.799c0 13.325-10.802 24.126-24.126 24.126h-149.927c-71.381 0-129.248 57.866-129.248 129.248v119.927c0 13.325-10.802 24.126-24.126 24.126-15.228 0-27.573-12.344-27.573-27.573v-269.854c0-15.228 12.345-27.573 27.573-27.573h299.854c15.228 0 27.573 12.345 27.573 27.573z" fill="#ffbd7b"/><path d="m305.077 20.226v84.752c0 10.4-11.072 17.052-20.257 12.175l-27.357-14.536c-4.05-2.146-8.892-2.146-12.942 0l-27.357 14.536c-9.185 4.877-20.257-1.775-20.257-12.175v-84.752z" fill="#e8f8fc"/><path d="m305.077 71.925v33.053c0 10.4-11.072 17.052-20.257 12.175l-27.357-14.536c-4.05-2.146-8.892-2.146-12.942 0l-27.357 14.536c-9.185 4.877-20.257-1.775-20.257-12.175v-19.818c17.199-8.47 36.568-13.235 57.041-13.235z" fill="#d6f4fc"/><path d="m465.32 280.106c11.54 14.63 8.73 35.9-6.23 47.01l-133.55 99.27c-11.217 8.338-24.821 12.84-38.797 12.84-8.354 0-200.41 0-213.743 0v-152.23h.55l72.47-41.66c10.37-5.97 22.14-9.11 34.11-9.11h72.53c44.331 0 52.878 63.813 11.61 76.93l-42.241 13.419c-8.71 2.767-6.719 15.622 2.42 15.625l96.941.026c7.27 0 14.33-2.44 20.05-6.92l77.55-60.74c14.424-11.281 35.095-8.693 46.33 5.54z" fill="#ffebd2"/><path d="m256.094 236.357c23.965 1.857 21.855 38.051-2.173 37.386-.987-.027 3.625-.017-73.791-.017-11.97 0-23.74 3.14-34.11 9.11l-72.47 41.66h-.55v-37.5h.55l72.47-41.66c10.37-5.97 22.14-9.11 34.11-9.11 78.827 0 73.536-.057 75.964.131z" fill="#fff3e4"/><path d="m73 442.566c0 9.75-7.91 17.66-17.66 17.66h-29.34c-9.94 0-18-8.06-18-18 0-5.621 0-155.626 0-162.34 0-9.75 7.91-17.66 17.66-17.66h29.68c9.75 0 17.66 7.91 17.66 17.66z" fill="#fe4f60"/><path d="m434.14 292.407-75.085 60.737c-7.8 6.31-17.529 9.752-27.561 9.752h-101.841c-10.183 0-17.669-11.545-10.084-22.26 1.271.963 2.91 1.559 4.881 1.559l96.94.03c7.27 0 14.33-2.44 20.05-6.92 83.069-65.06 77.851-60.999 78.806-61.676 12.176-8.638 25.501 9.389 13.894 18.778z" fill="#fff3e4"/><path d="m73 279.886c0 7.433-5.717 12.34-12 12.34-12.703 0-23 10.297-23 23v133c0 6.627-5.373 12-12 12-9.941 0-18-8.059-18-18v-162.34c0-9.753 7.907-17.66 17.66-17.66h29.68c9.753 0 17.66 7.907 17.66 17.66z" fill="#ff6d7a"/><path d="m81 291.947v150.618c0 14.149-11.511 25.661-25.661 25.661h-18.339c-4.418 0-8-3.582-8-8s3.582-8 8-8h18.339c5.327 0 9.661-4.334 9.661-9.661v-162.678c0-5.327-4.333-9.661-9.661-9.661h-29.678c-5.327 0-9.661 4.334-9.661 9.661v151.339c0 4.418-3.582 8-8 8s-8-3.582-8-8v-151.339c0-14.149 11.511-25.661 25.661-25.661h29.679c12.088 0 22.243 8.404 24.948 19.674l61.741-35.501c11.574-6.655 24.749-10.173 38.101-10.173h72.53c23.781 0 46.341 18.323 46.341 48.389 0 20.276-12.983 38.024-32.308 44.164l-91.375 29.035c-4.195 1.337-8.706-.98-10.047-5.201-1.338-4.211.991-8.709 5.202-10.047l91.375-29.035c12.652-4.021 21.152-15.641 21.152-28.916v-2.048c0-16.73-13.611-30.341-30.341-30.341h-72.53c-10.557 0-20.974 2.781-30.125 8.044zm333.057-23.678-77.549 60.741c-4.295 3.363-9.665 5.216-15.12 5.216h-44.388c-4.418 0-8 3.582-8 8s3.582 8 8 8h44.388c9.015 0 17.889-3.062 24.986-8.62l77.549-60.741c17.605-13.792 43.224.848 40.29 23.016-.897 6.771-4.41 12.745-9.893 16.819l-133.552 99.266c-9.77 7.262-21.854 11.261-34.027 11.261h-175.741c-4.418 0-8 3.582-8 8s3.582 8 8 8h175.741c15.588 0 31.062-5.121 43.572-14.419l133.552-99.266c8.983-6.677 14.74-16.465 16.209-27.562 4.802-36.269-37.114-60.351-66.017-37.711zm-341.057-34.043c4.418 0 8-3.582 8-8v-180.259c0-9.782 7.958-17.74 17.74-17.74h90.26v76.629c0 16.453 17.51 26.938 32.008 19.241l27.279-14.492c1.698-.905 3.727-.903 5.427.001l27.278 14.491c14.528 7.715 32.008-2.826 32.008-19.242v-51.629c0-4.418-3.582-8-8-8s-8 3.582-8 8v51.629c0 4.375-4.655 7.154-8.501 5.111l-27.276-14.491c-6.401-3.401-14.043-3.402-20.444-.001l-27.277 14.491c-3.856 2.05-8.501-.746-8.501-5.11v-76.629h197.26c9.782 0 17.74 7.958 17.74 17.74v180.26c0 4.418 3.582 8 8 8s8-3.582 8-8v-180.259c0-18.604-15.136-33.74-33.74-33.74h-303.521c-18.604-.001-33.74 15.135-33.74 33.74v180.26c0 4.417 3.582 7.999 8 7.999z"/></svg>