<svg id="Capa_1" enable-background="new 0 0 512 512" height="512" viewBox="0 0 512 512" width="512" xmlns="http://www.w3.org/2000/svg"><g><path d="m256 66.79c-85.091 0-154.318 69.227-154.318 154.317s69.227 154.317 154.318 154.317c85.092 0 154.319-69.226 154.319-154.316s-69.227-154.318-154.319-154.318zm0 288.634c-74.063 0-134.318-60.254-134.318-134.316s60.255-134.318 134.318-134.318 134.319 60.255 134.319 134.317-60.255 134.317-134.319 134.317z"/><path d="m412.348 64.761c-41.762-41.762-97.288-64.761-156.348-64.761s-114.586 22.999-156.348 64.761c-41.762 41.761-64.762 97.287-64.762 156.346 0 50.12 17.235 99.213 48.53 138.234 29.964 37.36 71.662 64.245 117.771 76.023l46.401 72.049c1.842 2.859 5.008 4.587 8.408 4.587s6.566-1.728 8.407-4.586l46.401-72.049c46.11-11.778 87.808-38.663 117.771-76.024 31.295-39.02 48.53-88.113 48.53-138.233.001-59.06-22.999-114.586-64.761-156.347zm-110.082 352.107c-2.521.594-4.714 2.143-6.116 4.32l-40.15 62.343-40.149-62.343c-1.402-2.178-3.595-3.727-6.116-4.32-91.17-21.459-154.845-101.959-154.845-195.761 0-110.89 90.217-201.107 201.11-201.107s201.11 90.217 201.11 201.107c0 93.802-63.675 174.302-154.844 195.761z"/><path d="m316.68 157.959h-22.645v-1.64c0-21.089-17.108-38.246-38.135-38.246-21.028 0-38.136 17.157-38.136 38.246v1.64h-22.443c-5.523 0-10 4.477-10 10v100.529c0 17.262 14.044 31.306 31.305 31.306h78.749c17.262 0 31.305-14.044 31.305-31.306v-100.529c0-5.523-4.477-10-10-10zm-78.916-1.64c0-10.061 8.136-18.246 18.136-18.246s18.135 8.186 18.135 18.246v1.64h-36.271zm68.916 112.169c0 6.234-5.071 11.306-11.305 11.306h-78.749c-6.234 0-11.305-5.071-11.305-11.306v-90.529h12.443v17.508c0 5.523 4.477 10 10 10s10-4.477 10-10v-17.508h36.271v17.508c0 5.523 4.477 10 10 10s10-4.477 10-10v-17.508h12.645z"/></g></svg>