<svg id="Capa_1" enable-background="new 0 0 512 512" height="512" viewBox="0 0 512 512" width="512" xmlns="http://www.w3.org/2000/svg" xmlns:xlink="http://www.w3.org/1999/xlink"><linearGradient id="lg1"><stop offset="0" stop-color="#43386b"/><stop offset="1" stop-color="#7662bd"/></linearGradient><linearGradient id="SVGID_1_" gradientTransform="matrix(-1 0 0 1 377.017 0)" gradientUnits="userSpaceOnUse" x1="231.294" x2="241.268" xlink:href="#lg1" y1="427.738" y2="410.464"/><linearGradient id="SVGID_2_" gradientUnits="userSpaceOnUse" x1="128.168" x2="128.168" xlink:href="#lg1" y1="486.853" y2="399.332"/><linearGradient id="SVGID_3_" gradientUnits="userSpaceOnUse" x1="264.549" x2="305.245" y1="372.235" y2="372.235"><stop offset="0" stop-color="#cc8241"/><stop offset="1" stop-color="#dea861"/></linearGradient><linearGradient id="SVGID_4_" gradientUnits="userSpaceOnUse" x1="216.752" x2="369.157" y1="191.203" y2="279.194"><stop offset="0" stop-color="#dea861"/><stop offset="1" stop-color="#ebcba0"/></linearGradient><g><g><path d="m109.12 127.964c-2.918 0-5.874-.744-8.583-2.307l-27.292-15.757c-8.227-4.75-11.045-15.269-6.296-23.496 4.75-8.226 15.27-11.044 23.496-6.296l27.292 15.757c8.226 4.75 11.045 15.269 6.296 23.496-3.186 5.517-8.968 8.603-14.913 8.603z" fill="#43386b"/></g><g><path d="m244.099 50.036c-2.918 0-5.874-.744-8.583-2.307l-27.075-15.632c-8.226-4.75-11.045-15.269-6.296-23.496 4.749-8.226 15.271-11.043 23.496-6.296l27.075 15.632c8.226 4.75 11.045 15.269 6.296 23.496-3.185 5.518-8.968 8.603-14.913 8.603z" fill="#43386b"/></g><g><path d="m112.009 408.202 23.044-13.25.001.002c4.201-2.226 9.598-1.909 15.486 1.49 13.396 7.734 24.256 28.484 24.256 46.346 0 9.82-3.287 16.713-8.469 19.653l.004.008-22.125 12.737z" fill="url(#SVGID_1_)"/><path d="m103.912 427.644c0-17.862 10.86-26.072 24.256-18.337 13.396 7.734 24.256 28.484 24.256 46.346s-10.86 26.072-24.256 18.337-24.256-28.484-24.256-46.346z" fill="url(#SVGID_2_)"/><ellipse cx="128.168" cy="441.648" fill="#e9e5f6" rx="13.117" ry="23.185" transform="matrix(.92 -.392 .392 .92 -162.694 85.446)"/><path d="m120.474 437.206c0-5.666 3.445-8.27 7.694-5.816 4.249 2.453 7.694 9.035 7.694 14.701s-3.445 8.27-7.694 5.816-7.694-9.035-7.694-14.701z" fill="#7662bd"/></g><g><path d="m230.572 501.211c-2.387 0-4.807-.608-7.023-1.887l-86.077-49.697c-4.353-2.514-7.036-7.16-7.036-12.188v-298.131l-28.335-16.36c-6.731-3.885-9.037-12.492-5.15-19.223 3.886-6.73 12.491-9.04 19.223-5.15l35.371 20.421c4.353 2.514 7.036 7.16 7.036 12.188v298.131l79.041 45.635c6.731 3.886 9.037 12.493 5.15 19.224-2.606 4.512-7.337 7.037-12.2 7.037z" fill="#7662bd"/></g><g><path d="m365.768 423.409c-2.387 0-4.807-.608-7.023-1.887l-86.077-49.697c-4.353-2.514-7.036-7.16-7.036-12.188v-298.131l-28.552-16.486c-6.731-3.885-9.037-12.492-5.15-19.223 3.885-6.73 12.492-9.039 19.223-5.151l35.588 20.547c4.353 2.514 7.036 7.16 7.036 12.188v298.131l79.041 45.635c6.731 3.886 9.037 12.493 5.15 19.224-2.606 4.513-7.337 7.038-12.2 7.038z" fill="#7662bd"/></g><g><path d="m144.522 145.257c-4.871 0-9.608-2.531-12.211-7.055-3.877-6.737-1.558-15.34 5.178-19.217l135.196-77.802c6.738-3.875 15.341-1.558 19.217 5.178 3.877 6.736 1.558 15.34-5.178 19.217l-135.196 77.802c-2.213 1.272-4.626 1.877-7.006 1.877z" fill="#7662bd"/></g><g><path d="m144.522 227.343c-4.865 0-9.594-2.524-12.201-7.039-3.886-6.731-1.58-15.338 5.15-19.224l135.196-78.055c6.732-3.885 15.337-1.577 19.223 5.151 3.886 6.731 1.581 15.338-5.151 19.224l-135.196 78.055c-2.214 1.279-4.635 1.888-7.021 1.888z" fill="#7662bd"/></g><g><g><path d="m447.357 417.049v-184.58l-296.255 12.704v184.579c0 4.229 2.092 8.459 6.278 10.876l117.359 67.757c8.347 4.819 18.63 4.819 26.977 0l139.363-80.461c4.186-2.416 6.279-6.646 6.278-10.875z" fill="url(#SVGID_3_)"/><path d="m157.38 234.299 139.363-80.461c8.347-4.819 18.63-4.819 26.977 0l117.359 67.757c8.371 4.833 8.371 16.916 0 21.749l-139.363 80.461c-8.347 4.819-18.63 4.819-26.977 0l-117.359-67.757c-8.371-4.833-8.371-16.916 0-21.749z" fill="url(#SVGID_4_)"/><path d="m202.568 208.21 149.682 86.419 39.706-22.924-149.683-86.419z" fill="#dea861"/><g fill="#cc8241"><path d="m226.299 194.497 149.683 86.419-7.778 4.49-149.682-86.419z"/><path d="m352.25 294.629v32.79l39.706-22.924v-32.79z"/></g></g></g></g></svg>