<svg id="Capa_1" enable-background="new 0 0 512 512" height="512" viewBox="0 0 512 512" width="512" xmlns="http://www.w3.org/2000/svg" xmlns:xlink="http://www.w3.org/1999/xlink"><linearGradient id="lg1"><stop offset="0" stop-color="#43386b"/><stop offset="1" stop-color="#7662bd"/></linearGradient><linearGradient id="SVGID_1_" gradientUnits="userSpaceOnUse" x1="215.786" x2="262.975" xlink:href="#lg1" y1="434.202" y2="434.202"/><linearGradient id="lg2"><stop offset="0" stop-color="#c5baeb"/><stop offset="1" stop-color="#d7d1eb"/></linearGradient><linearGradient id="SVGID_2_" gradientUnits="userSpaceOnUse" x1="172.978" x2="178.394" xlink:href="#lg2" y1="230.451" y2="230.451"/><linearGradient id="SVGID_3_" gradientUnits="userSpaceOnUse" x1="84.511" x2="268.243" xlink:href="#lg1" y1="85.959" y2="85.959"/><linearGradient id="SVGID_4_" gradientUnits="userSpaceOnUse" x1="223.396" x2="261.655" xlink:href="#lg2" y1="396.875" y2="396.875"/><linearGradient id="SVGID_5_" gradientUnits="userSpaceOnUse" x1="227.432" x2="260.955" y1="305.977" y2="305.977"><stop offset="0" stop-color="#cc8241"/><stop offset="1" stop-color="#dea861"/></linearGradient><linearGradient id="SVGID_6_" gradientUnits="userSpaceOnUse" x1="188.061" x2="313.601" y1="156.856" y2="229.337"><stop offset="0" stop-color="#dea861"/><stop offset="1" stop-color="#ebcba0"/></linearGradient><g><g><g><g><path d="m427.761 401.899v-45.496l-343.522 14.731v45.496c-.001 4.904 2.426 9.808 7.28 12.611l136.083 78.568c9.678 5.588 21.602 5.588 31.281 0l161.598-93.299c4.854-2.802 7.281-7.707 7.28-12.611z" fill="url(#SVGID_1_)"/><path d="m91.519 358.525 161.598-93.299c9.678-5.588 21.602-5.588 31.281 0l136.083 78.568c9.707 5.604 9.707 19.615 0 25.219l-161.598 93.299c-9.678 5.588-21.602 5.588-31.281 0l-136.083-78.568c-9.707-5.604-9.707-19.615 0-25.219z" fill="#a996eb"/></g></g><g><g><path d="m197.31 320.391v-192.518l-39.433 1.691v192.518c0 .563.279 1.126.836 1.448l15.621 9.019c1.111.641 2.48.641 3.591 0l18.55-10.71c.557-.322.835-.885.835-1.448z" fill="url(#SVGID_2_)"/><path d="m158.713 128.116 18.55-10.71c1.111-.642 2.48-.642 3.591 0l15.621 9.019c1.114.643 1.114 2.252 0 2.895l-18.55 10.71c-1.111.641-2.48.641-3.591 0l-15.621-9.019c-1.114-.643-1.114-2.252 0-2.895z" fill="#dfdaef"/></g></g><g><path d="m263.466 21.202.003-.007-32.997-19.052c-2.765-2.301-6.83-2.968-10.384-.916l-123.582 71.351c-7.422 4.285-11.995 12.205-11.995 20.775v49.37c0 3.366 1.759 6.112 4.251 7.682l-.005.01.155.089c.102.062.204.121.309.178l33.048 19.08c2.766 2.311 6.837 2.983 10.397.927l123.583-71.35c7.422-4.285 11.995-12.205 11.995-20.775v-49.37c-.001-3.598-2.009-6.493-4.778-7.992z" fill="url(#SVGID_3_)"/><path d="m131.011 92.665 123.583-71.35c6.066-3.503 13.65.876 13.65 7.881v49.37c0 8.57-4.572 16.49-11.995 20.775l-123.582 71.35c-6.066 3.502-13.65-.876-13.65-7.881v-49.37c-.001-8.571 4.571-16.49 11.994-20.775z" fill="#7662bd"/><path d="m133.537 112.769 121.715-70.273v37.843l-121.715 70.273z" fill="#43386b"/></g><g><g><path d="m395.258 361.464v-18.443l-278.516 11.943v18.443c0 3.976 1.967 7.952 5.902 10.224l110.332 63.7c7.847 4.53 17.514 4.53 25.361 0l131.018-75.643c3.936-2.272 5.903-6.248 5.903-10.224z" fill="url(#SVGID_4_)"/><path d="m122.644 344.741 131.018-75.643c7.847-4.53 17.514-4.53 25.361 0l110.332 63.7c7.87 4.544 7.87 15.903 0 20.447l-131.018 75.643c-7.847 4.53-17.515 4.53-25.361 0l-110.332-63.7c-7.869-4.544-7.869-15.904 0-20.447z" fill="#dfdaef"/></g></g></g><g><g><path d="m378.017 342.891v-152.043l-244.034 10.465v152.044c0 3.484 1.723 6.968 5.172 8.959l96.672 55.814c6.875 3.969 15.346 3.969 22.222 0l114.797-66.278c3.447-1.993 5.171-5.477 5.171-8.961z" fill="url(#SVGID_5_)"/><path d="m139.155 192.355 114.797-66.278c6.875-3.97 15.346-3.97 22.221 0l96.672 55.814c6.896 3.981 6.896 13.934 0 17.915l-114.797 66.278c-6.875 3.97-15.346 3.97-22.222 0l-96.672-55.813c-6.895-3.982-6.895-13.935.001-17.916z" fill="url(#SVGID_6_)"/><path d="m176.377 170.865 123.298 71.186 32.706-18.883-123.298-71.186z" fill="#dea861"/><g fill="#cc8241"><path d="m195.925 159.569 123.298 71.186-6.407 3.699-123.298-71.186z"/><path d="m299.675 242.051v27.01l32.706-18.883v-27.01z"/></g></g></g></g></svg>