<svg id="Capa_1" enable-background="new 0 0 512 512" height="512" viewBox="0 0 512 512" width="512" xmlns="http://www.w3.org/2000/svg" xmlns:xlink="http://www.w3.org/1999/xlink"><linearGradient id="SVGID_1_" gradientUnits="userSpaceOnUse" x1="223.519" x2="223.519" y1="160.294" y2="0"><stop offset="0" stop-color="#c5baeb"/><stop offset=".3795" stop-color="#c7bdec"/><stop offset=".6307" stop-color="#cfc6ee"/><stop offset=".8439" stop-color="#dbd5f2"/><stop offset="1" stop-color="#e9e5f6"/></linearGradient><linearGradient id="lg1"><stop offset="0" stop-color="#dea861"/><stop offset="1" stop-color="#ebcba0"/></linearGradient><linearGradient id="SVGID_2_" gradientUnits="userSpaceOnUse" x1="25.564" x2="593.358" xlink:href="#lg1" y1="379.159" y2="51.343"/><linearGradient id="SVGID_3_" gradientUnits="userSpaceOnUse" x1="279.596" x2="279.596" xlink:href="#lg1" y1="564.605" y2="18.415"/><linearGradient id="SVGID_4_" gradientUnits="userSpaceOnUse" x1="147.831" x2="147.831" y1="512" y2="128.435"><stop offset="0" stop-color="#cc8241"/><stop offset="1" stop-color="#dea861"/></linearGradient><linearGradient id="SVGID_5_" gradientUnits="userSpaceOnUse" x1="108.802" x2="108.802" xlink:href="#lg1" y1="498.363" y2="164.968"/><linearGradient id="SVGID_6_" gradientUnits="userSpaceOnUse" x1="271.102" x2="271.102" y1="187.934" y2="27.64"><stop offset="0" stop-color="#c5baeb"/><stop offset=".1485" stop-color="#ccc2ed"/><stop offset=".6795" stop-color="#e1dcf4"/><stop offset="1" stop-color="#e9e5f6"/></linearGradient><g><g><path d="m179.863 160.294c-5.663 0-10.254-4.591-10.254-10.254v-64.849c0-32.733 17.61-63.234 45.957-79.6 12.913-7.455 28.33-7.455 41.243 0 12.912 7.455 20.621 20.808 20.621 35.718v58.455c0 5.663-4.59 10.254-10.254 10.254s-10.254-4.591-10.254-10.254v-58.455c0-7.496-3.875-14.209-10.367-17.957-6.491-3.748-14.242-3.748-20.734 0-22.023 12.715-35.703 36.41-35.703 61.839v64.849c-.001 5.663-4.592 10.254-10.255 10.254z" fill="url(#SVGID_1_)"/></g><path d="m128.293 466.253-7.533-288.459 255.32-147.409 15.743 9.042z" fill="url(#SVGID_2_)"/><path d="m391.823 39.427 30.867 325.164-255.321 147.409-30.867-325.164z" fill="url(#SVGID_3_)"/><path d="m128.293 466.253 39.076 45.747-30.867-325.164-8.209-4.739z" fill="url(#SVGID_4_)"/><path d="m128.293 182.097v284.156h-38.983l31.45-288.459z" fill="url(#SVGID_5_)"/><ellipse cx="227.445" cy="181.335" fill="#cc8241" rx="17.439" ry="9.866" transform="matrix(.392 -.92 .92 .392 -28.469 319.618)"/><ellipse cx="314.759" cy="131.059" fill="#cc8241" rx="17.438" ry="9.866" transform="matrix(.392 -.92 .92 .392 70.92 369.37)"/><g><path d="m227.445 187.934c-5.663 0-10.254-4.591-10.254-10.254v-64.848c0-32.733 17.61-63.234 45.958-79.6 12.913-7.455 28.33-7.455 41.243 0s20.622 20.808 20.622 35.718v58.455c0 5.663-4.59 10.254-10.254 10.254s-10.254-4.591-10.254-10.254v-58.456c0-7.496-3.876-14.209-10.368-17.957-6.493-3.749-14.244-3.747-20.734 0-22.023 12.715-35.704 36.41-35.704 61.84v64.848c-.001 5.663-4.592 10.254-10.255 10.254z" fill="url(#SVGID_6_)"/></g></g></svg>